<?xml version="1.0" encoding="UTF-8"?> <svg xmlns="http://www.w3.org/2000/svg" width="546" height="503" viewBox="0 0 546 503" fill="none"><path d="M255.397 448.338C252.271 448.267 249.113 448.135 246.011 447.932L246.213 444.821C249.269 445.024 252.38 445.157 255.467 445.219L255.405 448.338H255.397ZM264.8 448.338L264.73 445.219C267.809 445.149 270.928 445.016 273.984 444.814L274.187 447.924C271.084 448.127 267.926 448.267 264.792 448.338H264.8ZM236.647 447.121C233.544 446.778 230.41 446.373 227.33 445.897L227.806 442.818C230.839 443.286 233.934 443.691 236.99 444.026L236.655 447.129L236.647 447.121ZM283.558 447.098L283.215 443.995C286.271 443.66 289.358 443.247 292.399 442.779L292.874 445.858C289.795 446.334 286.661 446.755 283.558 447.098ZM218.076 444.252C215.012 443.636 211.933 442.95 208.9 442.202L209.648 439.177C212.634 439.91 215.675 440.588 218.684 441.196L218.076 444.252ZM302.129 444.213L301.513 441.157C304.53 440.549 307.57 439.871 310.549 439.13L311.297 442.155C308.272 442.904 305.185 443.597 302.129 444.213ZM199.825 439.746C196.839 438.865 193.822 437.906 190.867 436.885L191.88 433.938C194.789 434.936 197.759 435.887 200.706 436.752L199.825 439.746ZM320.372 439.684L319.491 436.69C322.446 435.817 325.416 434.866 328.309 433.868L329.322 436.815C326.383 437.828 323.366 438.795 320.372 439.684ZM182.026 433.626C179.118 432.48 176.194 431.248 173.341 429.977L174.612 427.132C177.426 428.387 180.303 429.603 183.164 430.733L182.018 433.634L182.026 433.626ZM338.14 433.556L336.994 430.656C339.84 429.533 342.701 428.324 345.507 427.069L346.778 429.915C343.933 431.186 341.025 432.417 338.14 433.556ZM164.827 425.939C162.028 424.535 159.229 423.054 156.508 421.534L158.029 418.813C160.711 420.31 163.471 421.775 166.223 423.155L164.827 425.947V425.939ZM355.253 425.892L353.857 423.109C356.594 421.736 359.346 420.279 362.028 418.774L363.548 421.495C360.827 423.015 358.036 424.496 355.261 425.892H355.253ZM148.392 416.762C145.742 415.125 143.083 413.394 140.503 411.64L142.257 409.06C144.806 410.79 147.418 412.49 150.037 414.112L148.4 416.762H148.392ZM371.633 416.739L369.996 414.088C372.6 412.474 375.212 410.783 377.753 409.052L379.507 411.632C376.927 413.387 374.276 415.11 371.633 416.747V416.739ZM132.847 406.175C130.344 404.304 127.857 402.355 125.44 400.375L127.413 397.965C129.79 399.915 132.246 401.832 134.71 403.68L132.839 406.175H132.847ZM387.156 406.167L385.292 403.672C387.748 401.84 390.196 399.915 392.582 397.965L394.562 400.382C392.145 402.363 389.658 404.312 387.163 406.175L387.156 406.167ZM401.688 394.262L399.606 391.939C401.891 389.896 404.167 387.76 406.366 385.608L408.549 387.838C406.311 390.021 404.003 392.181 401.688 394.262ZM118.299 394.262C115.975 392.188 113.668 390.021 111.43 387.838L113.613 385.608C115.819 387.76 118.096 389.888 120.38 391.939L118.299 394.262ZM415.129 381.125L412.852 378.997C414.957 376.752 417.031 374.428 419.035 372.097L421.405 374.124C419.37 376.494 417.265 378.849 415.129 381.125ZM104.858 381.125C102.721 378.849 100.616 376.494 98.5894 374.124L100.96 372.097C102.955 374.428 105.037 376.744 107.142 378.997L104.865 381.125H104.858ZM92.6252 366.858C90.7073 364.41 88.8128 361.876 86.9963 359.342L89.5301 357.526C91.3154 360.028 93.1866 362.523 95.0811 364.932L92.6252 366.858ZM427.361 366.858L424.905 364.932C426.8 362.515 428.671 360.013 430.456 357.51L432.99 359.327C431.174 361.868 429.279 364.402 427.353 366.858H427.361ZM81.7025 351.585C80.0029 348.973 78.3423 346.291 76.7597 343.602L79.4494 342.019C81.0087 344.67 82.6459 347.313 84.3221 349.885L81.7103 351.585H81.7025ZM438.3 351.554L435.688 349.854C437.356 347.281 439.001 344.631 440.568 341.972L443.258 343.555C441.668 346.252 439.999 348.95 438.307 351.554H438.3ZM72.1754 335.415C70.7175 332.663 69.2985 329.841 67.9576 327.034L70.7721 325.693C72.0896 328.461 73.4852 331.244 74.9275 333.95L72.1754 335.415ZM447.85 335.337L445.098 333.872C446.54 331.151 447.944 328.36 449.261 325.584L452.076 326.917C450.735 329.74 449.316 332.57 447.85 335.33V335.337ZM64.1218 318.474C62.9133 315.613 61.7517 312.681 60.668 309.758L63.5916 308.674C64.6597 311.551 65.8058 314.443 66.9986 317.258L64.1218 318.474ZM455.927 318.326L453.05 317.117C454.251 314.272 455.397 311.371 456.465 308.487L459.389 309.57C458.305 312.502 457.143 315.449 455.927 318.334V318.326ZM57.5962 300.878C56.6451 297.907 55.7407 294.874 54.9221 291.865L57.9315 291.046C58.7345 294.009 59.6233 296.995 60.5666 299.926L57.5962 300.878ZM462.46 300.651L459.49 299.7C460.426 296.777 461.307 293.791 462.11 290.82L465.119 291.639C464.3 294.656 463.404 297.689 462.46 300.659V300.651ZM52.6611 282.735C51.9751 279.695 51.3514 276.592 50.8056 273.52L53.8774 272.974C54.4153 275.999 55.039 279.056 55.7095 282.049L52.669 282.735H52.6611ZM467.38 282.509L464.339 281.823C465.01 278.829 465.626 275.773 466.164 272.741L469.236 273.286C468.69 276.366 468.066 279.469 467.388 282.502L467.38 282.509ZM49.3555 264.235C48.9423 261.147 48.5915 258.005 48.3186 254.895L51.4215 254.622C51.6944 257.686 52.0374 260.781 52.4429 263.829L49.3555 264.243V264.235ZM470.67 264.001L467.583 263.588C467.98 260.555 468.323 257.46 468.596 254.38L471.699 254.653C471.426 257.772 471.083 260.913 470.67 263.993V264.001ZM47.6949 245.516C47.5545 242.405 47.4844 239.247 47.4844 236.121H50.6029C50.6029 239.201 50.6809 242.319 50.8134 245.383L47.6949 245.523V245.516ZM472.307 245.282L469.189 245.149C469.321 242.085 469.391 238.975 469.391 235.887V235.427H472.51V235.879C472.51 239.014 472.44 242.179 472.307 245.282ZM50.79 226.851L47.6715 226.719C47.804 223.6 48.0067 220.443 48.2718 217.34L51.3825 217.605C51.1175 220.661 50.9148 223.772 50.79 226.851ZM469.173 226.165C469.033 223.086 468.822 219.975 468.549 216.926L471.652 216.646C471.933 219.741 472.143 222.898 472.284 226.025L469.165 226.165H469.173ZM52.3805 208.397L49.2853 207.992C49.6907 204.897 50.1741 201.77 50.7121 198.699L53.7838 199.244C53.2537 202.269 52.7781 205.349 52.3805 208.397ZM467.512 207.719C467.099 204.663 466.616 201.583 466.078 198.566L469.15 198.013C469.703 201.077 470.194 204.203 470.608 207.298L467.52 207.711L467.512 207.719ZM55.6004 190.162L52.5598 189.483C53.2381 186.443 53.9943 183.371 54.8051 180.354L57.8145 181.165C57.0115 184.135 56.2709 187.16 55.6004 190.162ZM464.238 189.491C463.56 186.49 462.804 183.465 461.993 180.502L465.002 179.676C465.821 182.677 466.593 185.749 467.279 188.797L464.238 189.483V189.491ZM60.4263 172.285L57.4559 171.341C58.4071 168.363 59.4362 165.361 60.5121 162.43L63.4357 163.506C62.3676 166.398 61.3541 169.353 60.4185 172.292L60.4263 172.285ZM459.35 171.63C458.406 168.698 457.385 165.751 456.317 162.882L459.241 161.799C460.324 164.714 461.361 167.708 462.32 170.679L459.35 171.638V171.63ZM66.8427 154.86L63.9658 153.651C65.1743 150.767 66.4685 147.874 67.8095 145.052L70.6317 146.385C69.3141 149.168 68.0433 152.022 66.8505 154.86H66.8427ZM452.902 154.291C451.709 151.468 450.431 148.63 449.113 145.863L451.928 144.522C453.269 147.329 454.563 150.213 455.779 153.074L452.91 154.291H452.902ZM74.7794 138.09L72.0195 136.632C73.4774 133.872 75.0211 131.104 76.6037 128.415L79.2935 129.997C77.7342 132.656 76.2139 135.377 74.7716 138.098L74.7794 138.09ZM444.942 137.606C443.5 134.893 441.979 132.18 440.42 129.545L443.102 127.962C444.685 130.644 446.228 133.396 447.694 136.149L444.942 137.614V137.606ZM84.1662 122.1L81.5466 120.4C83.2462 117.78 85.0238 115.169 86.8403 112.619L89.3819 114.428C87.5966 116.938 85.8424 119.519 84.1662 122.092V122.1ZM435.532 121.686C433.856 119.106 432.094 116.541 430.308 114.046L432.842 112.229C434.651 114.755 436.436 117.367 438.144 119.979L435.532 121.679V121.686ZM94.9251 107.006L92.4693 105.088C94.395 102.624 96.3986 100.176 98.4257 97.8061L100.796 99.8332C98.7999 102.172 96.8197 104.581 94.9251 107.006ZM424.757 106.639C422.855 104.223 420.883 101.813 418.879 99.4823L421.249 97.4475C423.276 99.8098 425.287 102.258 427.213 104.706L424.757 106.632V106.639ZM106.97 92.9256L104.694 90.7972C106.822 88.5207 109.037 86.2519 111.258 84.069L113.441 86.2987C111.243 88.4505 109.068 90.6803 106.97 92.9256ZM412.689 92.5981C410.576 90.3528 408.401 88.123 406.202 85.9868L408.377 83.7571C410.607 85.9323 412.821 88.1854 414.957 90.4697L412.681 92.6059L412.689 92.5981ZM120.201 79.9603L118.119 77.637C120.443 75.5553 122.836 73.4971 125.253 71.5168L127.233 73.9259C124.855 75.875 122.493 77.902 120.209 79.9603H120.201ZM399.435 79.6562C397.143 77.6058 394.773 75.5787 392.387 73.6374L394.359 71.2206C396.776 73.193 399.178 75.2513 401.509 77.3329L399.435 79.6562ZM134.515 68.2112L132.644 65.7163C135.139 63.8452 137.711 62.0053 140.284 60.2511L142.046 62.8239C139.512 64.5547 136.979 66.3712 134.523 68.2112H134.515ZM385.09 67.9305C382.618 66.0906 380.084 64.2818 377.543 62.551L379.297 59.9704C381.877 61.7246 384.458 63.5568 386.961 65.4279L385.097 67.9305H385.09ZM149.796 57.7797L148.151 55.1289C150.802 53.4839 153.522 51.8856 156.236 50.3575L157.764 53.0785C155.09 54.5754 152.408 56.158 149.796 57.7797ZM369.754 57.5146C367.135 55.9007 364.437 54.3181 361.755 52.8212L363.275 50.1003C366.004 51.6206 368.733 53.2188 371.391 54.8638L369.754 57.5146ZM165.926 48.7437L164.523 45.9604C167.306 44.5571 170.152 43.2005 172.99 41.9297L174.269 44.7754C171.47 46.0306 168.663 47.3715 165.926 48.7515V48.7437ZM353.553 48.4942C350.801 47.1143 347.979 45.7811 345.164 44.5259L346.435 41.6802C349.289 42.951 352.158 44.3076 354.949 45.7031L353.553 48.4942ZM182.782 41.1734L181.628 38.2732C184.529 37.1193 187.499 36.0201 190.438 34.9987L191.459 37.9458C188.559 38.9515 185.636 40.0352 182.774 41.1734H182.782ZM336.604 40.9396C333.735 39.8091 330.804 38.7332 327.888 37.7353L328.901 34.7882C331.864 35.8018 334.834 36.8933 337.742 38.0393L336.604 40.9396ZM200.277 35.1157L199.388 32.1297C202.374 31.2409 205.431 30.4067 208.456 29.6582L209.212 32.6832C206.226 33.4239 203.224 34.2425 200.277 35.1235V35.1157ZM319.062 34.9286C316.115 34.0632 313.106 33.2524 310.12 32.5195L310.868 29.4945C313.893 30.2352 316.949 31.0616 319.943 31.9426L319.062 34.9364V34.9286ZM218.248 30.6406L217.632 27.5844C220.688 26.9685 223.807 26.4072 226.886 25.9238L227.369 29.0034C224.337 29.4789 221.265 30.0247 218.256 30.6406H218.248ZM301.076 30.508C298.067 29.9077 294.995 29.3698 291.954 28.902L292.43 25.8224C295.517 26.298 298.636 26.8438 301.684 27.4519L301.076 30.508ZM236.546 27.7793L236.203 24.6764C239.306 24.3333 242.455 24.0527 245.566 23.8422L245.777 26.9529C242.713 27.1556 239.602 27.4363 236.554 27.7715L236.546 27.7793ZM282.77 27.7092C279.722 27.3817 276.619 27.1088 273.539 26.9139L273.742 23.8032C276.861 24.0059 280.01 24.271 283.106 24.6062L282.77 27.7092ZM255.023 26.5397L254.953 23.4212C258.071 23.351 261.237 23.3432 264.355 23.4056L264.293 26.5241C261.221 26.4617 258.103 26.4695 255.031 26.5397H255.023Z" fill="#433F34"></path><path d="M406.678 247.883H113.317V502.995H406.678V247.883Z" fill="#CECECE"></path><path d="M113.371 261.744L99.7739 341.368H128.901L141.04 261.744H113.371Z" fill="#738942"></path><path d="M141.04 261.744L128.901 341.368H158.036L168.717 261.744H141.04Z" fill="#89A056"></path><path d="M168.717 261.744L158.036 341.368H187.171L196.394 261.744H168.717Z" fill="#738942"></path><path d="M196.394 261.744L187.171 341.368H216.298L224.071 261.744H196.394Z" fill="#89A056"></path><path d="M224.072 261.744L216.299 341.368H245.434L249.316 261.744H224.072Z" fill="#738942"></path><path d="M406.623 261.744H378.954L391.093 341.368H420.22L406.623 261.744Z" fill="#738942"></path><path d="M351.275 261.744L361.956 341.368H391.091L378.952 261.744H351.275Z" fill="#89A056"></path><path d="M323.6 261.744L332.823 341.368H361.958L351.277 261.744H323.6Z" fill="#738942"></path><path d="M295.93 261.744L303.695 341.368H332.822L323.599 261.744H295.93Z" fill="#89A056"></path><path d="M270.68 261.744L274.562 341.368H303.697L295.932 261.744H270.68Z" fill="#738942"></path><path d="M268.254 261.744H259.998H251.742H249.317L245.434 341.368H259.998H274.561L270.679 261.744H268.254Z" fill="#89A056"></path><path d="M114.337 355.935C122.383 355.935 128.901 349.417 128.901 341.371H99.7656C99.7656 349.417 106.291 355.935 114.329 355.935H114.337Z" fill="#6B803E"></path><path d="M143.472 355.935C151.518 355.935 158.035 349.417 158.035 341.371H128.9C128.9 349.417 135.418 355.935 143.464 355.935H143.472Z" fill="#81974F"></path><path d="M172.599 355.935C180.645 355.935 187.163 349.417 187.163 341.371H158.028C158.028 349.417 164.546 355.935 172.591 355.935H172.599Z" fill="#6B803E"></path><path d="M201.734 355.935C209.78 355.935 216.298 349.417 216.298 341.371H187.163C187.163 349.417 193.68 355.935 201.726 355.935H201.734Z" fill="#81974F"></path><path d="M230.862 355.935C238.908 355.935 245.425 349.417 245.425 341.371H216.291C216.291 349.417 222.808 355.935 230.854 355.935H230.862Z" fill="#6B803E"></path><path d="M259.997 355.935C268.043 355.935 274.561 349.417 274.561 341.371H245.426C245.426 349.417 251.952 355.935 259.99 355.935H259.997Z" fill="#81974F"></path><path d="M289.13 355.935C297.176 355.935 303.694 349.417 303.694 341.371H274.559C274.559 349.417 281.084 355.935 289.122 355.935H289.13Z" fill="#6B803E"></path><path d="M318.26 355.935C326.306 355.935 332.823 349.417 332.823 341.371H303.688C303.688 349.417 310.214 355.935 318.252 355.935H318.26Z" fill="#81974F"></path><path d="M347.393 355.935C355.438 355.935 361.956 349.417 361.956 341.371H332.821C332.821 349.417 339.347 355.935 347.385 355.935H347.393Z" fill="#6B803E"></path><path d="M376.52 355.935C384.566 355.935 391.084 349.417 391.084 341.371H361.949C361.949 349.417 368.466 355.935 376.512 355.935H376.52Z" fill="#81974F"></path><path d="M405.655 355.935C413.701 355.935 420.218 349.417 420.218 341.371H391.083C391.083 349.417 397.601 355.935 405.647 355.935H405.655Z" fill="#6B803E"></path><path d="M406.678 235.861H113.317V251.337H406.678V235.861Z" fill="#89A056"></path><path d="M406.678 247.568H113.317V255.107H406.678V247.568Z" fill="#595449"></path><mask id="mask0_375_175" style="mask-type:luminance" maskUnits="userSpaceOnUse" x="136" y="372" width="160" height="108"><path d="M295.929 372.168H136.19V479.118H295.929V372.168Z" fill="white"></path></mask><g mask="url(#mask0_375_175)"><path d="M295.93 372.166H136.19V479.116H295.93V372.166Z" fill="#D9864D"></path><path d="M194.726 358.428L132.927 483.744L156.952 495.592L218.752 370.276L194.726 358.428Z" fill="#FFA05F"></path><path d="M175.231 353.234L113.432 478.551L122.152 482.851L183.951 357.534L175.231 353.234Z" fill="#FFA05F"></path></g><path d="M299.742 482.936H132.362V368.346H299.742V482.936ZM140.002 475.296H292.101V375.986H140.002V475.296Z" fill="#443F34"></path><path d="M386.632 368.346H319.997V502.989H386.632V368.346Z" fill="#D9864D"></path><mask id="mask1_375_175" style="mask-type:luminance" maskUnits="userSpaceOnUse" x="319" y="368" width="68" height="135"><path d="M386.633 368.344H319.998V502.987H386.633V368.344Z" fill="white"></path></mask><g mask="url(#mask1_375_175)"><path d="M349.031 355.911L297.269 438.235L316.264 450.178L368.026 367.855L349.031 355.911Z" fill="#FFA05F"></path><path d="M379.691 360.881L309.836 471.981L318.654 477.525L388.509 366.425L379.691 360.881Z" fill="#FFA05F"></path></g><path d="M319.997 368.346V502.989H386.632V368.346H319.997ZM378.992 375.986V431.847H351.276V427.169H334.28V431.847H327.638V375.986H378.992ZM327.638 495.348V439.487H334.28V444.165H351.276V439.487H378.992V495.348H327.638Z" fill="#443F34"></path><path d="M351.112 152.451H266.89V225.692H351.112V152.451Z" fill="#CECECE"></path><path d="M266.906 156.431L263.002 179.29H271.365L274.85 156.431H266.906Z" fill="#738942"></path><path d="M274.849 156.431L271.365 179.29H279.729L282.795 156.431H274.849Z" fill="#89A056"></path><path d="M282.795 156.431L279.729 179.29H288.093L290.741 156.431H282.795Z" fill="#738942"></path><path d="M290.741 156.431L288.094 179.29H296.456L298.687 156.431H290.741Z" fill="#89A056"></path><path d="M298.687 156.431L296.456 179.29H304.82L305.935 156.431H298.687Z" fill="#738942"></path><path d="M351.096 156.431H343.153L346.638 179.29H355L351.096 156.431Z" fill="#738942"></path><path d="M335.206 156.431L338.273 179.29H346.637L343.152 156.431H335.206Z" fill="#89A056"></path><path d="M327.261 156.431L329.909 179.29H338.274L335.207 156.431H327.261Z" fill="#738942"></path><path d="M319.317 156.431L321.547 179.29H329.909L327.261 156.431H319.317Z" fill="#89A056"></path><path d="M312.068 156.431L313.183 179.29H321.547L319.318 156.431H312.068Z" fill="#738942"></path><path d="M311.372 156.431H309.002H306.631H305.935L304.821 179.29H309.002H313.183L312.068 156.431H311.372Z" fill="#89A056"></path><path d="M267.183 183.472C269.493 183.472 271.364 181.601 271.364 179.291H263C263 181.601 264.873 183.472 267.181 183.472H267.183Z" fill="#6B803E"></path><path d="M275.548 183.472C277.858 183.472 279.729 181.601 279.729 179.291H271.365C271.365 181.601 273.236 183.472 275.545 183.472H275.548Z" fill="#81974F"></path><path d="M283.91 183.472C286.22 183.472 288.091 181.601 288.091 179.291H279.727C279.727 181.601 281.598 183.472 283.908 183.472H283.91Z" fill="#6B803E"></path><path d="M292.274 183.472C294.584 183.472 296.455 181.601 296.455 179.291H288.091C288.091 181.601 289.962 183.472 292.272 183.472H292.274Z" fill="#81974F"></path><path d="M300.637 183.472C302.946 183.472 304.818 181.601 304.818 179.291H296.453C296.453 181.601 298.325 183.472 300.634 183.472H300.637Z" fill="#6B803E"></path><path d="M309.001 183.472C311.311 183.472 313.182 181.601 313.182 179.291H304.818C304.818 181.601 306.691 183.472 308.999 183.472H309.001Z" fill="#81974F"></path><path d="M317.365 183.472C319.675 183.472 321.546 181.601 321.546 179.291H313.182C313.182 181.601 315.055 183.472 317.363 183.472H317.365Z" fill="#6B803E"></path><path d="M325.728 183.472C328.038 183.472 329.909 181.601 329.909 179.291H321.545C321.545 181.601 323.418 183.472 325.726 183.472H325.728Z" fill="#81974F"></path><path d="M334.092 183.472C336.402 183.472 338.273 181.601 338.273 179.291H329.909C329.909 181.601 331.782 183.472 334.09 183.472H334.092Z" fill="#6B803E"></path><path d="M342.454 183.472C344.764 183.472 346.635 181.601 346.635 179.291H338.271C338.271 181.601 340.142 183.472 342.452 183.472H342.454Z" fill="#81974F"></path><path d="M350.818 183.472C353.128 183.472 354.999 181.601 354.999 179.291H346.635C346.635 181.601 348.506 183.472 350.816 183.472H350.818Z" fill="#6B803E"></path><path d="M351.112 149H266.89V153.443H351.112V149Z" fill="#89A056"></path><path d="M351.112 152.361H266.89V154.525H351.112V152.361Z" fill="#595449"></path><mask id="mask2_375_175" style="mask-type:luminance" maskUnits="userSpaceOnUse" x="273" y="188" width="47" height="31"><path d="M319.317 188.133H273.457V218.837H319.317V188.133Z" fill="white"></path></mask><g mask="url(#mask2_375_175)"><path d="M319.317 188.132H273.457V218.837H319.317V188.132Z" fill="#D9864D"></path><path d="M290.262 184.188L272.52 220.165L279.418 223.567L297.16 187.589L290.262 184.188Z" fill="#FFA05F"></path><path d="M284.666 182.697L266.924 218.674L269.427 219.909L287.169 183.931L284.666 182.697Z" fill="#FFA05F"></path></g><path d="M320.412 219.933H272.358V187.035H320.412V219.933ZM274.552 217.74H318.218V189.229H274.552V217.74Z" fill="#443F34"></path><path d="M345.357 187.035H326.227V225.69H345.357V187.035Z" fill="#D9864D"></path><mask id="mask3_375_175" style="mask-type:luminance" maskUnits="userSpaceOnUse" x="326" y="187" width="20" height="39"><path d="M345.358 187.035H326.227V225.69H345.358V187.035Z" fill="white"></path></mask><g mask="url(#mask3_375_175)"><path d="M334.562 183.465L319.702 207.1L325.155 210.529L340.016 186.894L334.562 183.465Z" fill="#FFA05F"></path><path d="M343.365 184.892L323.31 216.788L325.841 218.38L345.896 186.484L343.365 184.892Z" fill="#FFA05F"></path></g><path d="M326.227 187.035V225.69H345.357V187.035H326.227ZM343.164 189.229V205.266H335.207V203.923H330.327V205.266H328.42V189.229H343.164ZM328.42 223.497V207.46H330.327V208.803H335.207V207.46H343.164V223.497H328.42Z" fill="#443F34"></path><path d="M269.718 84.0258H220.283V127.015H269.718V84.0258Z" fill="#CECECE"></path><path d="M220.293 86.3615L218.001 99.7791H222.91L224.955 86.3615H220.293Z" fill="#738942"></path><path d="M224.955 86.3615L222.91 99.7791H227.819L229.619 86.3615H224.955Z" fill="#89A056"></path><path d="M229.619 86.3615L227.819 99.7791H232.729L234.283 86.3615H229.619Z" fill="#738942"></path><path d="M234.283 86.3615L232.729 99.7791H237.637L238.947 86.3615H234.283Z" fill="#89A056"></path><path d="M238.947 86.3615L237.637 99.7791H242.547L243.201 86.3615H238.947Z" fill="#738942"></path><path d="M269.709 86.3615H265.046L267.092 99.7791H272L269.709 86.3615Z" fill="#738942"></path><path d="M260.382 86.3615L262.182 99.7791H267.091L265.046 86.3615H260.382Z" fill="#89A056"></path><path d="M255.719 86.3615L257.273 99.7791H262.182L260.382 86.3615H255.719Z" fill="#738942"></path><path d="M251.056 86.3615L252.364 99.7791H257.273L255.718 86.3615H251.056Z" fill="#89A056"></path><path d="M246.801 86.3615L247.455 99.7791H252.365L251.056 86.3615H246.801Z" fill="#738942"></path><path d="M246.392 86.3615H245.001H243.61H243.201L242.547 99.7791H245.001H247.455L246.801 86.3615H246.392Z" fill="#89A056"></path><path d="M220.455 102.234C221.811 102.234 222.909 101.135 222.909 99.7796H218C218 101.135 219.1 102.234 220.454 102.234H220.455Z" fill="#6B803E"></path><path d="M225.365 102.234C226.721 102.234 227.819 101.135 227.819 99.7796H222.91C222.91 101.135 224.008 102.234 225.364 102.234H225.365Z" fill="#81974F"></path><path d="M230.273 102.234C231.629 102.234 232.727 101.135 232.727 99.7796H227.818C227.818 101.135 228.916 102.234 230.272 102.234H230.273Z" fill="#6B803E"></path><path d="M235.183 102.234C236.538 102.234 237.637 101.135 237.637 99.7796H232.727C232.727 101.135 233.826 102.234 235.181 102.234H235.183Z" fill="#81974F"></path><path d="M240.091 102.234C241.447 102.234 242.545 101.135 242.545 99.7796H237.636C237.636 101.135 238.734 102.234 240.09 102.234H240.091Z" fill="#6B803E"></path><path d="M245.001 102.234C246.357 102.234 247.455 101.135 247.455 99.7796H242.545C242.545 101.135 243.645 102.234 244.999 102.234H245.001Z" fill="#81974F"></path><path d="M249.91 102.234C251.266 102.234 252.364 101.135 252.364 99.7796H247.455C247.455 101.135 248.554 102.234 249.909 102.234H249.91Z" fill="#6B803E"></path><path d="M254.819 102.234C256.174 102.234 257.273 101.135 257.273 99.7796H252.363C252.363 101.135 253.463 102.234 254.817 102.234H254.819Z" fill="#81974F"></path><path d="M259.728 102.234C261.084 102.234 262.182 101.135 262.182 99.7796H257.272C257.272 101.135 258.372 102.234 259.727 102.234H259.728Z" fill="#6B803E"></path><path d="M264.636 102.234C265.992 102.234 267.09 101.135 267.09 99.7796H262.181C262.181 101.135 263.279 102.234 264.635 102.234H264.636Z" fill="#81974F"></path><path d="M269.546 102.234C270.901 102.234 272 101.135 272 99.7796H267.09C267.09 101.135 268.189 102.234 269.544 102.234H269.546Z" fill="#6B803E"></path><path d="M269.718 82H220.283V84.6078H269.718V82Z" fill="#89A056"></path><path d="M269.718 83.9728H220.283V85.2432H269.718V83.9728Z" fill="#595449"></path><mask id="mask4_375_175" style="mask-type:luminance" maskUnits="userSpaceOnUse" x="224" y="104" width="28" height="19"><path d="M251.056 104.969H224.138V122.991H251.056V104.969Z" fill="white"></path></mask><g mask="url(#mask4_375_175)"><path d="M251.056 104.969H224.138V122.991H251.056V104.969Z" fill="#D9864D"></path><path d="M234.002 102.654L223.588 123.771L227.636 125.767L238.05 104.65L234.002 102.654Z" fill="#FFA05F"></path><path d="M230.717 101.779L220.303 122.896L221.772 123.62L232.186 102.503L230.717 101.779Z" fill="#FFA05F"></path></g><path d="M251.698 123.635H223.493V104.325H251.698V123.635ZM224.78 122.347H250.411V105.613H224.78V122.347Z" fill="#443F34"></path><path d="M266.34 104.325H255.111V127.014H266.34V104.325Z" fill="#D9864D"></path><mask id="mask5_375_175" style="mask-type:luminance" maskUnits="userSpaceOnUse" x="255" y="104" width="12" height="24"><path d="M266.34 104.325H255.112V127.014H266.34V104.325Z" fill="white"></path></mask><g mask="url(#mask5_375_175)"><path d="M260.004 102.23L251.281 116.102L254.482 118.115L263.205 104.242L260.004 102.23Z" fill="#FFA05F"></path><path d="M265.17 103.067L253.399 121.789L254.885 122.723L266.656 104.001L265.17 103.067Z" fill="#FFA05F"></path></g><path d="M255.111 104.325V127.014H266.34V104.325H255.111ZM265.053 105.613V115.026H260.382V114.237H257.518V115.026H256.399V105.613H265.053ZM256.399 125.726V116.313H257.518V117.101H260.382V116.313H265.053V125.726H256.399Z" fill="#443F34"></path><path d="M105.251 193.446C105.251 222.51 81.6901 246.071 52.6253 246.071C23.5606 246.071 0 222.51 0 193.446C0 164.381 23.5606 140.82 52.6253 140.82C81.6901 140.82 105.251 164.381 105.251 193.446Z" fill="#738942"></path><path d="M42.9503 211.508C43.1062 211.625 43.2933 211.75 43.5662 211.867C43.5662 211.929 43.5584 211.992 43.5584 212.054C43.5584 212.553 43.7221 213.029 44.0028 213.419C43.8624 213.715 43.7923 214.042 43.7923 214.37C43.7923 215.282 44.338 216.085 45.1332 216.444L45.297 217.083C45.3905 220.1 48.6416 222.532 52.6333 222.532C56.6251 222.532 59.8839 220.1 59.9697 217.083L60.1412 216.444C60.9364 216.077 61.4822 215.274 61.4822 214.37C61.4822 214.034 61.412 213.715 61.2717 213.419C61.5524 213.029 61.7161 212.553 61.7161 212.062C61.7161 212 61.7161 211.937 61.7161 211.875C61.9889 211.758 62.1683 211.633 62.3242 211.516C63.1506 210.893 63.6262 209.996 63.938 208.975H41.3364C41.6249 209.957 42.1083 210.877 42.9581 211.516L42.9503 211.508Z" fill="#D8D8D8"></path><path d="M52.8356 164.359C51.8922 164.359 50.9411 164.414 50.0055 164.508C43.3163 165.225 37.6717 168.219 34.5298 172.733C31.8244 176.615 31.076 181.387 32.3702 186.532C33.22 189.885 34.943 192.855 36.6192 195.74C38.2642 198.578 39.9638 201.509 40.7201 204.705C40.7668 204.893 40.8058 205.423 40.8448 205.859C40.9228 206.803 41.0163 207.918 41.3282 208.962H53.202V164.359C53.0773 164.359 52.9525 164.352 52.8278 164.352L52.8356 164.359Z" fill="white"></path><path d="M69.3396 170.984C65.6675 166.915 59.6565 164.459 53.2012 164.365V208.968H63.9289C64.2486 207.9 64.3889 206.692 64.5215 205.499C64.5838 204.953 64.6618 204.212 64.7398 203.932C65.613 200.704 67.2268 198.038 68.7861 195.449C70.8131 192.089 72.9103 188.612 73.3859 184.028C73.9005 178.999 72.5049 174.485 69.3396 170.992V170.984Z" fill="white"></path><path d="M203.865 52.6253C203.865 81.6901 180.305 105.251 151.24 105.251C122.175 105.251 98.6145 81.6901 98.6145 52.6253C98.6145 23.5606 122.175 0 151.24 0C180.305 0 203.865 23.5606 203.865 52.6253Z" fill="#F4D64D"></path><path d="M151.24 0V105.251C180.304 105.251 203.865 81.6901 203.865 52.6253C203.865 23.5606 180.304 0 151.24 0Z" fill="#F4D64D"></path><path d="M171.302 61.8248C171.302 58.0201 170.14 54.9172 167.817 52.5081C165.493 50.099 161.665 47.9473 156.333 46.0605C153.705 45.164 151.647 44.3843 150.174 43.706C148.692 43.0278 147.655 42.4196 147.055 41.8661C146.455 41.3204 146.158 40.6187 146.158 39.7845C146.158 38.8177 146.572 38.0849 147.406 37.5859C148.232 37.0869 149.667 36.8375 151.709 36.8375C155.818 36.8375 160.41 37.9523 165.478 40.1509C165.696 40.2445 165.914 40.3302 166.14 40.4316L170.694 29.5245C168.947 28.776 167.209 28.1445 165.478 27.6144C162.39 26.671 159.319 26.0941 156.263 25.8524V20.6055H146.244V26.0005C141.426 26.6476 137.754 28.0588 135.259 30.2496C132.554 32.6196 131.205 35.9175 131.205 40.1275C131.205 42.8796 131.657 45.1874 132.562 47.0351C133.466 48.8828 134.916 50.559 136.904 52.0481C138.892 53.545 141.512 54.886 144.747 56.0866C147.632 57.1314 149.924 58.0279 151.616 58.7686C153.316 59.5092 154.524 60.1719 155.249 60.7566C155.974 61.3414 156.341 62.0586 156.341 62.9006C156.341 64.1247 155.834 64.9979 154.828 65.5202C153.822 66.0426 152.232 66.3077 150.064 66.3077C147.437 66.3077 144.389 65.8009 140.919 64.7952C137.45 63.7894 134.238 62.5342 131.275 61.0217V73.7298C136.086 75.8192 141.075 77.0354 146.244 77.4019V84.6369H156.263V77.1134C161.011 76.3961 164.675 74.7979 167.232 72.2796C169.953 69.5977 171.309 66.1205 171.309 61.8326L171.302 61.8248Z" fill="white"></path><path d="M363.48 105.251C392.544 105.251 416.105 81.6895 416.105 52.6253C416.105 23.5612 392.544 0 363.48 0C334.415 0 310.854 23.5612 310.854 52.6253C310.854 81.6895 334.415 105.251 363.48 105.251Z" fill="#47A48B"></path><path d="M380.437 26.3125H346.523C341.356 26.3125 337.167 30.5012 337.167 35.6681V69.5822C337.167 74.7492 341.356 78.9378 346.523 78.9378H380.437C385.604 78.9378 389.793 74.7492 389.793 69.5822V35.6681C389.793 30.5012 385.604 26.3125 380.437 26.3125Z" fill="white"></path><path d="M355.816 65.5208V39.7227L378.16 52.6256L355.816 65.5208Z" fill="#46A289"></path><path d="M465.05 246.071C494.115 246.071 517.676 222.51 517.676 193.446C517.676 164.382 494.115 140.82 465.05 140.82C435.986 140.82 412.425 164.382 412.425 193.446C412.425 222.51 435.986 246.071 465.05 246.071Z" fill="#46A289"></path><path d="M465.05 237.493C440.764 237.493 421.008 217.737 421.008 193.452C421.008 169.166 440.764 149.41 465.05 149.41C489.335 149.41 509.091 169.166 509.091 193.452C509.091 217.737 489.335 237.493 465.05 237.493ZM465.05 159.538C446.354 159.538 431.144 174.748 431.144 193.444C431.144 212.14 446.354 227.35 465.05 227.35C483.745 227.35 498.956 212.14 498.956 193.444C498.956 174.748 483.745 159.538 465.05 159.538Z" fill="white"></path><path d="M465.05 220.35C450.222 220.35 438.153 208.281 438.153 193.452C438.153 178.623 450.222 166.555 465.05 166.555C479.879 166.555 491.948 178.623 491.948 193.452C491.948 208.281 479.879 220.35 465.05 220.35ZM465.05 176.682C455.804 176.682 448.288 184.206 448.288 193.444C448.288 202.683 455.812 210.206 465.05 210.206C474.289 210.206 481.812 202.683 481.812 193.444C481.812 184.206 474.289 176.682 465.05 176.682Z" fill="white"></path><path d="M473.876 193.447C473.876 198.327 469.923 202.28 465.042 202.28C460.162 202.28 456.209 198.327 456.209 193.447C456.209 188.566 460.162 184.613 465.042 184.613C469.923 184.613 473.876 188.566 473.876 193.447Z" fill="white"></path><path d="M540.667 195.783H465.05C463.756 195.783 462.711 194.739 462.711 193.445C462.711 192.15 463.756 191.106 465.05 191.106H540.667C541.961 191.106 543.006 192.15 543.006 193.445C543.006 194.739 541.961 195.783 540.667 195.783Z" fill="#47A48B"></path><path d="M545.344 182.484H540.144L531.701 186.648L534.562 182.484H525.853L520.006 191.06H539.497L545.344 182.484Z" fill="#41937B"></path><path d="M545.344 204.408H525.853L520.006 195.832H539.497L545.344 204.408Z" fill="#41937B"></path></svg> 