<svg xmlns="http://www.w3.org/2000/svg" width="794.733" height="729.169" viewBox="0 0 794.733 729.169"><defs><style>.a,.n{opacity:0.5;}.b{fill:#ebebeb;}.c{fill:#698137;}.d,.f,.n{fill:none;stroke-miterlimit:10;}.d{stroke:#d6d6d6;}.e{fill:#282828;}.f{stroke:#282828;}.g{fill:#6d7c4a;}.h{fill:#64704b;}.i{fill:#424931;}.j{fill:#ed8d5d;}.k{fill:#db8256;}.l{fill:#2c1817;}.m{fill:#fff;}.n{stroke:#eee;stroke-width:6px;}.o{fill:#f4a93d;}.p{fill:#eee;opacity:0.05;}.q{fill:#606060;}</style></defs><g transform="translate(-189.002 -1959.062)"><g transform="translate(621.002 1649.369)"><g class="a" transform="translate(-431.999 314.631)"><path class="b" d="M-53.274,332.372c31.251,26.228-19.01,103.242,7.35,119.294s213.687-149.7,283.405-73.481S96.107,675.264,104.6,721.176c6.312,34.1,44.725,15.2,54.721,13.623,13.649-2.152,20.47,13.285,10.2,29.424C92.444,885.4-10.836,979.984-122.885,994.356c-38.8,4.976-82.451.322-109.411-32.557-25.157-30.68-28.772-77.864-23.175-119.787s39.263-131.608,15.675-159.2-132.056,44.144-158.225,11.378S-301.1,494.752-244.16,438.55C-178.849,374.089-84.524,306.143-53.274,332.372Z" transform="translate(463.571 -302.196)"/><ellipse class="b" cx="79.724" cy="28.58" rx="79.724" ry="28.58" transform="translate(597.373 378.892) rotate(-51.092)"/><path class="b" d="M-6.274,387.6a8.276,8.276,0,0,1-7.164,9.255,8.276,8.276,0,0,1-9.255-7.166,8.276,8.276,0,0,1,7.164-9.255A8.274,8.274,0,0,1-6.274,387.6Z" transform="translate(729.356 -385.306)"/><path class="b" d="M-269.936,353.272c-15.293,10.952-4.222,26.316,10.972,17.58,29.5-16.964,46.557-25.863,60.617-32.887,9.54-4.764,3.149-24.911-13.654-17.2C-235.316,331.453-257.261,344.2-269.936,353.272Z" transform="translate(592.826 -310.067)"/><path class="b" d="M-215.388,322.409a8.9,8.9,0,0,1-7.707,9.954,8.9,8.9,0,0,1-9.952-7.707,8.9,8.9,0,0,1,7.7-9.952A8.9,8.9,0,0,1-215.388,322.409Z" transform="translate(638.712 -314.631)"/><ellipse class="b" cx="65.017" cy="29.474" rx="65.017" ry="29.474" transform="matrix(0.632, -0.775, 0.775, 0.632, 0, 318.367)"/><path class="b" d="M-345.8,421.434a13.87,13.87,0,0,1-12.008,15.512,13.873,13.873,0,0,1-15.512-12.01,13.871,13.871,0,0,1,12.01-15.509A13.87,13.87,0,0,1-345.8,421.434Z" transform="translate(492.872 -216.22)"/><path class="b" d="M-404.918,497.39a6.936,6.936,0,0,1-6,7.756,6.936,6.936,0,0,1-7.756-6,6.936,6.936,0,0,1,6-7.756A6.936,6.936,0,0,1-404.918,497.39Z" transform="translate(445.787 -130.974)"/><path class="b" d="M-292.353,328.585a9.537,9.537,0,0,1-8.255,10.664,9.538,9.538,0,0,1-10.664-8.257,9.535,9.535,0,0,1,8.255-10.662A9.535,9.535,0,0,1-292.353,328.585Z" transform="translate(557.4 -308.789)"/><path class="b" d="M-39.376,325.045a3.467,3.467,0,0,1-3,3.879,3.468,3.468,0,0,1-3.877-3,3.467,3.467,0,0,1,3-3.879A3.468,3.468,0,0,1-39.376,325.045Z" transform="translate(832.907 -306.957)"/><path class="b" d="M.352,340.815A17.337,17.337,0,0,1-14.658,360.2a17.338,17.338,0,0,1-19.388-15.01A17.34,17.34,0,0,1-19.035,325.8,17.335,17.335,0,0,1,.352,340.815Z" transform="translate(640.479 -321.164)"/><path class="b" d="M-147.724,651.586a29.476,29.476,0,0,1-25.519,32.961A29.475,29.475,0,0,1-206.2,659.027a29.472,29.472,0,0,1,25.519-32.958A29.473,29.473,0,0,1-147.724,651.586Z" transform="translate(666.442 8.823)"/><path class="b" d="M-207.506,668.734a9.535,9.535,0,0,1-8.255,10.664,9.537,9.537,0,0,1-10.664-8.255,9.537,9.537,0,0,1,8.257-10.664A9.535,9.535,0,0,1-207.506,668.734Z" transform="translate(645.589 44.756)"/><path class="b" d="M-39.677,467.278a2.6,2.6,0,0,1-2.251,2.908,2.6,2.6,0,0,1-2.908-2.251,2.6,2.6,0,0,1,2.251-2.908A2.6,2.6,0,0,1-39.677,467.278Z" transform="translate(834.388 -158.335)"/><circle class="b" cx="7.802" cy="7.802" r="7.802" transform="translate(208.509 583.599)"/></g><g transform="translate(-337.288 374.654)"><path class="c" d="M-284.945,403.761h-94.13a6.482,6.482,0,0,1-6.483-6.481h0a6.482,6.482,0,0,1,6.483-6.483h94.13a6.482,6.482,0,0,1,6.481,6.483h0A6.482,6.482,0,0,1-284.945,403.761Z" transform="translate(385.558 -295.489)"/><path class="c" d="M-127.133,403.761H-166.2a6.482,6.482,0,0,1-6.481-6.481h0A6.482,6.482,0,0,1-166.2,390.8h39.066a6.482,6.482,0,0,1,6.483,6.483h0A6.482,6.482,0,0,1-127.133,403.761Z" transform="translate(606.819 -295.489)"/><path class="c" d="M-69.1,403.761h-61.5a6.482,6.482,0,0,1-6.483-6.481h0A6.482,6.482,0,0,1-130.6,390.8h61.5a6.482,6.482,0,0,1,6.483,6.483h0A6.482,6.482,0,0,1-69.1,403.761Z" transform="translate(643.819 -295.489)"/><g transform="translate(0 139.893)"><path class="d" d="M233.691,475.566l-587.8,1.507a31.453,31.453,0,0,1-31.453-31.453h0A31.453,31.453,0,0,1-354.1,414.166l587.8-1.507a31.453,31.453,0,0,1,31.453,31.453h0A31.453,31.453,0,0,1,233.691,475.566Z" transform="translate(385.558 -412.659)"/><path class="c" d="M-55.995,455.475l-8.441-8.445a18.039,18.039,0,0,0-1.036-24.293,18.1,18.1,0,0,0-25.566,0,18.1,18.1,0,0,0,0,25.562,17.952,17.952,0,0,0,12.783,5.3,17.877,17.877,0,0,0,11.516-4.256l8.439,8.441Zm-31.986-10.232a13.769,13.769,0,0,1,0-19.452,13.717,13.717,0,0,1,9.726-4.02,13.717,13.717,0,0,1,9.726,4.02,13.769,13.769,0,0,1,0,19.452,13.665,13.665,0,0,1-9.726,4.028A13.665,13.665,0,0,1-87.981,445.243Z" transform="translate(686.185 -407.68)"/></g><g transform="translate(123.968)"><g transform="translate(114.64 561.544)"><path class="e" d="M-77.182,619.413v27.593a358.151,358.151,0,0,1-191.376,45.866V619.413Z" transform="translate(268.558 -619.413)"/><line class="f" y2="13.445" transform="translate(95.619 51.229)"/><path class="f" d="M-225.578,619.413V647.52A12.586,12.586,0,0,0-212.993,660.1h0V619.413" transform="translate(313.231 -619.413)"/></g><path class="g" d="M-258.828,403.761h-59.46a6.482,6.482,0,0,1-6.483-6.481h0a6.482,6.482,0,0,1,6.483-6.483h59.46a6.482,6.482,0,0,1,6.481,6.483h0A6.482,6.482,0,0,1-258.828,403.761Z" transform="translate(324.771 -295.489)"/><path class="h" d="M-70.983,790.306h0a385.166,385.166,0,0,1-199.541,0h0V462.844H-70.983Z" transform="translate(381.153 -220.604)"/><line class="i" y1="107.758" x2="94.818" transform="translate(148.437 406.999)"/><line class="i" y1="57.179" x2="39.209" transform="translate(204.047 457.578)"/><g transform="translate(98.172)"><path class="j" d="M0,0H117.341a0,0,0,0,1,0,0V34.729A23.942,23.942,0,0,1,93.4,58.67H23.942A23.942,23.942,0,0,1,0,34.729V0A0,0,0,0,1,0,0Z" transform="translate(53.485 242.24)"/><rect class="e" width="43.93" height="69.333" transform="translate(35.998 67.48)"/><path class="e" d="M10.267,0H63.556A10.267,10.267,0,0,1,73.822,10.267V120.295a0,0,0,0,1,0,0H0a0,0,0,0,1,0,0V10.267A10.267,10.267,0,0,1,10.267,0Z" transform="translate(114.49 16.518)"/><path class="j" d="M-199.83,556.4h0a42.79,42.79,0,0,1-42.79-42.79v-54.25a42.79,42.79,0,0,1,42.79-42.79h0a42.79,42.79,0,0,1,42.79,42.79v54.25A42.79,42.79,0,0,1-199.83,556.4Z" transform="translate(311.986 -268.703)"/><path class="e" d="M-242.62,442.623s10.264,30.171,42.79,30.171v-.355l.141.355c32.526,0,42.79-30.171,42.79-30.171Z" transform="translate(311.986 -241.622)"/><path class="k" d="M-237.764,433.29h-7.562a18.067,18.067,0,0,1-18.067-18.067v0a18.067,18.067,0,0,1,18.067-18.067h7.562A18.069,18.069,0,0,1-219.7,415.221h0A18.07,18.07,0,0,1-237.764,433.29Z" transform="translate(290.394 -288.881)"/><path class="k" d="M-175.679,433.29h-7.564a18.069,18.069,0,0,1-18.067-18.067v0a18.069,18.069,0,0,1,18.067-18.067h7.564a18.067,18.067,0,0,1,18.067,18.067h0A18.068,18.068,0,0,1-175.679,433.29Z" transform="translate(354.923 -288.881)"/><path class="e" d="M-156.663,380.315c-2.447,12.944-29.406,18.717-60.217,12.893s-53.8-21.036-51.356-33.98,29.406-18.719,60.217-12.9S-154.218,367.369-156.663,380.315Z" transform="translate(285.175 -344.063)"/><path class="f" d="M-191.7,417.813s2.247-12.218,15.112-12.95" transform="translate(364.906 -280.869)"/><path class="f" d="M-243.871,417.813s-2.245-12.218-15.11-12.95" transform="translate(294.98 -280.869)"/><path class="j" d="M-189.373,543.871h0a63.3,63.3,0,0,1-63.307-63.3V424.543a63.307,63.307,0,0,1,63.307-63.307h0a63.307,63.307,0,0,1,63.307,63.307v56.024A63.3,63.3,0,0,1-189.373,543.871Z" transform="translate(301.529 -326.214)"/><path class="f" d="M-218.611,412.659s-7.264,19.682-5.631,22.541,7.894,4.085,7.894,4.085" transform="translate(330.839 -272.766)"/><path class="e" d="M-127.566,388.577c0,20.076-33.37,36.348-74.533,36.348s-74.533-16.272-74.533-36.348,33.368-36.35,74.533-36.35S-127.566,368.5-127.566,388.577Z" transform="translate(276.633 -335.578)"/><path class="e" d="M-168.17,369.1c7.623,7.342,1.444,26.127-13.8,41.96s-33.784,22.719-41.408,15.377-1.446-26.127,13.8-41.96S-175.794,361.756-168.17,369.1Z" transform="translate(328.59 -321.099)"/><path class="e" d="M-216.8,406.932c0,3.661-10.811,6.628-17.214,6.628s-8.606-2.967-8.606-6.628,7.825-6.628,14.229-6.628S-216.8,403.271-216.8,406.932Z" transform="translate(311.986 -285.607)"/><path class="l" d="M-224.234,420.71c0,4.448-2.515,8.054-5.616,8.054s-5.616-3.606-5.616-8.054,2.515-8.051,5.616-8.051S-224.234,416.265-224.234,420.71Z" transform="translate(319.42 -272.766)"/><path class="l" d="M-202.086,420.71c0,4.448-2.515,8.054-5.616,8.054s-5.614-3.606-5.614-8.054,2.515-8.051,5.614-8.051S-202.086,416.265-202.086,420.71Z" transform="translate(342.443 -272.766)"/><path class="e" d="M-213.317,406.932c0,3.661,10.811,6.628,17.212,6.628s8.608-2.967,8.608-6.628-7.825-6.628-14.229-6.628S-213.317,403.271-213.317,406.932Z" transform="translate(342.443 -285.607)"/><path class="m" d="M-232.2,430.63c0,11.892,9.642,19.085,21.536,19.085s21.536-7.193,21.536-19.085Z" transform="translate(322.818 -254.087)"/><ellipse class="e" cx="17.996" cy="35.243" rx="17.996" ry="35.243" transform="translate(133.249 51.13) rotate(-22.756)"/><path class="n" d="M-242.465,375.468a80.307,80.307,0,0,1,62.693,94.7" transform="translate(312.147 -311.422)"/></g><path class="k" d="M-227.529,520.749l-29.243,165.729A35.841,35.841,0,0,1-298.3,715.546l-13.6-2.4,35.471-201.026Z" transform="translate(338.157 -169.386)"/><path class="j" d="M-123.046,545.583v140.9A355.27,355.27,0,0,1-172.685,721.4V545.583Z" transform="translate(482.847 -134.607)"/><path class="k" d="M-123.038,545.585v30.534c-9.092,1.862-25.07,4.042-49.649,4.042V545.585Z" transform="translate(482.845 -134.605)"/><path class="h" d="M-172.681,651.448v-188.6h0c34.433,0,62.347,26.5,62.347,59.193V644.928S-128,651.448-172.681,651.448Z" transform="translate(478.697 -220.604)"/><path class="h" d="M-240.357,651.448v-188.6h0a59.193,59.193,0,0,0-59.193,59.193V644.928S-282.78,651.448-240.357,651.448Z" transform="translate(350.985 -220.604)"/><g transform="translate(26.115 17.009)"><rect class="e" width="29.406" height="92.303" transform="translate(89.312 231.052) rotate(11.495)"/><rect class="o" width="41.059" height="127.836" rx="4.645" transform="translate(66.998 311.537) rotate(11.496)"/><path class="o" d="M-161.954,355.465a124.617,124.617,0,0,0-146.952,97.281A124.618,124.618,0,0,0-211.623,599.7a124.617,124.617,0,0,0,146.95-97.283A124.614,124.614,0,0,0-161.954,355.465Zm-45.07,221.612a101.532,101.532,0,0,1-79.261-119.73,101.532,101.532,0,0,1,119.73-79.263,101.533,101.533,0,0,1,79.263,119.73A101.534,101.534,0,0,1-207.024,577.076Z" transform="translate(312.523 -351.846)"/><circle class="p" cx="101.533" cy="101.533" r="101.533" transform="matrix(0.961, -0.278, 0.278, 0.961, 0, 56.389)"/></g><path class="j" d="M-301.08,729.853h0A25.314,25.314,0,0,1-320.843,700l40.5-199.142,52.157-2.386L-271.225,710.09A25.314,25.314,0,0,1-301.08,729.853Z" transform="translate(328.32 -183.574)"/><path class="j" d="M12.25,0H52.439a0,0,0,0,1,0,0V30.019a0,0,0,0,1,0,0H0a0,0,0,0,1,0,0V12.25A12.25,12.25,0,0,1,12.25,0Z" transform="translate(53.957 287.866) rotate(11.495)"/><path class="j" d="M-270.746,560.825l-23.088-4.695L-281.6,496l23.086,4.695a30.681,30.681,0,0,1,23.953,36.181h0A30.681,30.681,0,0,1-270.746,560.825Z" transform="translate(356.926 -186.146)"/><line class="q" x2="0.011" y2="115.948" transform="translate(310.158 314.897)"/></g></g></g></g></svg>