<?xml version="1.0" encoding="UTF-8"?> <svg xmlns="http://www.w3.org/2000/svg" width="501" height="352" viewBox="0 0 501 352" fill="none"><path d="M253.64 352C380.522 352 483.381 332.806 483.381 309.128C483.381 285.45 380.522 266.256 253.64 266.256C126.758 266.256 23.9001 285.45 23.9001 309.128C23.9001 332.806 126.758 352 253.64 352Z" fill="#7D8E44"></path><path d="M462.798 324.331V337.93L446.783 330.27L452.572 322.098L462.798 324.331Z" fill="#595348"></path><path d="M51.79 337.93V324.331L65.6461 322.771L69.727 329.736L51.79 337.93Z" fill="#595348"></path><path d="M462.798 337.93H51.79L87.1894 285.069H427.398L462.798 337.93Z" fill="#595348"></path><path d="M131.249 269.963H110.726V282.452H131.249V269.963Z" fill="#443F34"></path><path d="M402.617 269.963H382.094V282.452H402.617V269.963Z" fill="#443F34"></path><path d="M427.399 79.1384H87.1895V274.258H427.399V79.1384Z" fill="#443F34"></path><path d="M462.798 324.331H51.79L87.1894 277.89H427.398L462.798 324.331Z" fill="#443F34"></path><path d="M455.502 320.143L424.99 280.112H89.6094L59.0857 320.143H455.502Z" fill="#595348"></path><path d="M415.749 91.4347H98.8508V263.948H415.749V91.4347Z" fill="#7D8E44"></path><path d="M163.694 263.949H415.737V95.0461H415.132C409.082 144.499 371.345 244.644 163.694 263.949Z" fill="#698037"></path><path d="M110.619 290.966H98.4358L104.652 281.725H116.349L110.619 290.966Z" fill="#443F34"></path><path d="M95.4459 303.316H82.6338L89.8109 293.113H102.089L95.4459 303.316Z" fill="#443F34"></path><path d="M78.6123 317.034H65.0884L73.3925 305.699H86.3351L78.6123 317.034Z" fill="#443F34"></path><path d="M131.973 290.966H119.801L125.175 281.725H136.872L131.973 290.966Z" fill="#443F34"></path><path d="M117.926 303.316H105.114L111.366 293.113H123.644L117.926 303.316Z" fill="#443F34"></path><path d="M102.327 317.034H88.8147L96.0868 305.699H109.029L102.327 317.034Z" fill="#443F34"></path><path d="M153.338 290.966H141.154L145.698 281.725H157.395L153.338 290.966Z" fill="#443F34"></path><path d="M140.407 303.316H127.595L132.91 293.113H145.2L140.407 303.316Z" fill="#443F34"></path><path d="M126.053 317.034H112.529L118.781 305.699H131.723L126.053 317.034Z" fill="#443F34"></path><path d="M174.691 290.966H162.52L166.221 281.725H177.918L174.691 290.966Z" fill="#443F34"></path><path d="M162.888 303.316H150.064L154.465 293.113H166.755L162.888 303.316Z" fill="#443F34"></path><path d="M261.031 317.034H136.243L141.475 305.699H265.669L261.031 317.034Z" fill="#443F34"></path><path d="M196.057 290.966H183.874L186.744 281.725H198.453L196.057 290.966Z" fill="#443F34"></path><path d="M185.356 303.316H172.544L176.02 293.113H188.31L185.356 303.316Z" fill="#443F34"></path><path d="M217.411 290.966H205.239L207.268 281.725H218.976L217.411 290.966Z" fill="#443F34"></path><path d="M207.837 303.316H195.025L197.575 293.113H209.865L207.837 303.316Z" fill="#443F34"></path><path d="M238.776 290.966H226.592L227.802 281.725H239.499L238.776 290.966Z" fill="#443F34"></path><path d="M230.317 303.316H217.493L219.131 293.113H231.421L230.317 303.316Z" fill="#443F34"></path><path d="M260.129 290.966H247.958L248.325 281.725H260.022L260.129 290.966Z" fill="#443F34"></path><path d="M252.786 303.316H239.974L240.686 293.113H252.976L252.786 303.316Z" fill="#443F34"></path><path d="M281.495 290.966H269.311L268.849 281.725H280.546L281.495 290.966Z" fill="#443F34"></path><path d="M275.266 303.316H262.454L262.241 293.113H274.531L275.266 303.316Z" fill="#443F34"></path><path d="M268.35 317.034H254.826L254.933 305.699H267.876L268.35 317.034Z" fill="#443F34"></path><path d="M302.848 290.966H290.676L289.372 281.725H301.069L302.848 290.966Z" fill="#443F34"></path><path d="M297.747 303.316H284.935L283.796 293.113H296.086L297.747 303.316Z" fill="#443F34"></path><path d="M292.076 317.034H278.553L277.627 305.699H290.57L292.076 317.034Z" fill="#443F34"></path><path d="M324.214 290.966H312.03L309.895 281.725H321.592L324.214 290.966Z" fill="#443F34"></path><path d="M320.215 303.316H307.403L305.351 293.113H317.641L320.215 303.316Z" fill="#443F34"></path><path d="M315.791 317.034H302.267L300.321 305.699H313.264L315.791 317.034Z" fill="#443F34"></path><path d="M345.567 290.966H333.396L330.418 281.725H342.127L345.567 290.966Z" fill="#443F34"></path><path d="M342.696 303.316H329.884L326.906 293.113H339.196L342.696 303.316Z" fill="#443F34"></path><path d="M339.505 317.034H325.981L323.016 305.699H335.958L339.505 317.034Z" fill="#443F34"></path><path d="M366.932 290.966H354.761L350.941 281.725H362.65L366.932 290.966Z" fill="#443F34"></path><path d="M365.177 303.316H352.365L348.462 293.113H360.752L365.177 303.316Z" fill="#443F34"></path><path d="M363.219 317.034H349.707L345.709 305.699H358.64L363.219 317.034Z" fill="#443F34"></path><path d="M388.298 290.966H376.115L371.476 281.725H383.173L388.298 290.966Z" fill="#443F34"></path><path d="M387.657 303.316H374.833L370.017 293.113H382.295L387.657 303.316Z" fill="#443F34"></path><path d="M386.945 317.034H373.421L368.403 305.699H381.334L386.945 317.034Z" fill="#443F34"></path><path d="M409.651 290.966H397.48L391.999 281.725H403.696L409.651 290.966Z" fill="#443F34"></path><path d="M410.126 303.316H397.314L391.572 293.113H403.85L410.126 303.316Z" fill="#443F34"></path><path d="M410.66 317.034H397.136L391.097 305.699H404.028L410.66 317.034Z" fill="#443F34"></path><path d="M423.887 290.966H411.716L405.677 281.725H417.374L423.887 290.966Z" fill="#443F34"></path><path d="M425.109 303.316H412.297L405.938 293.113H418.228L425.109 303.316Z" fill="#443F34"></path><path d="M450.187 317.034H436.664L428.917 305.699H441.848L450.187 317.034Z" fill="#443F34"></path><path d="M349.494 190.223C345.519 192.638 343.384 196.655 343.811 200.96C344.226 205.265 347.097 208.887 351.487 210.65L415.749 236.439V149.979L349.494 190.234V190.223Z" fill="#7D8E44"></path><path d="M422.879 139.253L347.002 185.351C341.332 188.802 342.079 196.526 348.331 199.037L436.889 234.569C443.141 237.08 450.021 232.411 449.072 226.311L436.391 144.68C435.501 138.932 428.217 136.016 422.879 139.253Z" fill="#F2D44D"></path><path d="M443.189 238.875C440.543 239.398 437.755 239.152 435.145 238.105L346.588 202.573C342.198 200.81 339.339 197.188 338.912 192.883C338.497 188.578 340.62 184.561 344.595 182.146L420.471 136.048C424.219 133.772 428.917 133.399 433.046 135.055C437.174 136.71 440.009 140.108 440.638 144.135L453.32 225.766C453.984 230.05 452.098 234.153 448.254 236.759C446.7 237.817 444.968 238.522 443.177 238.875H443.189ZM426.841 141.86C426.307 141.967 425.774 142.17 425.287 142.458L349.411 188.556C347.465 189.742 347.406 191.505 347.477 192.21C347.548 192.915 347.94 194.646 350.087 195.501L438.645 231.033C440.792 231.898 442.477 231.001 443.106 230.574C443.734 230.146 445.146 228.939 444.826 226.835L432.144 145.204C431.93 143.815 430.993 142.682 429.558 142.116C428.668 141.764 427.731 141.678 426.829 141.849L426.841 141.86Z" fill="#DDC143"></path><path d="M403.091 195.661C405.428 196.601 406.484 199.09 405.452 201.184C404.408 203.289 401.679 204.175 399.342 203.235C397.005 202.295 395.985 199.902 397.029 197.798C398.073 195.693 400.754 194.71 403.091 195.65V195.661ZM409.568 189.091C408.809 190.618 406.733 190.704 405.606 190.255C404.479 189.806 403.625 188.77 403.625 188.77L416.651 159.028C417.766 156.421 421.194 156.346 422.677 156.945C424.872 157.821 425.761 159.626 425.761 159.626L409.568 189.091Z" fill="#443F34"></path><path d="M207.327 185.512L183.933 227.721C182.177 230.884 184.977 234.537 188.868 234.206L244.102 229.452C248.005 229.121 249.975 225.05 247.59 222.241L215.75 184.785C213.508 182.146 208.964 182.542 207.327 185.512Z" fill="#F2D44D"></path><path d="M248.598 230.008C247.448 230.937 245.977 231.525 244.351 231.664L189.117 236.418C186.377 236.653 183.826 235.574 182.272 233.533C180.718 231.493 180.516 228.95 181.75 226.739L205.144 184.529C206.295 182.446 208.525 181.068 211.099 180.843C213.674 180.619 216.153 181.591 217.719 183.439L249.559 220.895C251.232 222.861 251.576 225.382 250.473 227.657C250.034 228.576 249.393 229.367 248.598 229.997V230.008ZM210.115 185.811C209.877 186.003 209.676 186.238 209.533 186.505L186.139 228.715C185.534 229.794 186.068 230.691 186.317 231.023C186.566 231.354 187.302 232.123 188.642 232.005L243.877 227.251C245.217 227.134 245.775 226.258 245.953 225.895C246.131 225.521 246.463 224.559 245.645 223.598L213.804 186.142C213.258 185.501 212.44 185.181 211.55 185.255C210.993 185.298 210.494 185.501 210.103 185.811H210.115Z" fill="#DDC143"></path><path d="M215.109 218.641C216.568 218.512 217.873 219.485 218.016 220.799C218.158 222.113 217.078 223.245 215.619 223.373C214.16 223.501 212.903 222.561 212.772 221.247C212.63 219.933 213.662 218.769 215.121 218.641H215.109ZM216.272 213.726C216.367 214.677 215.37 215.254 214.658 215.307C213.958 215.371 213.211 215.072 213.211 215.072L210.399 196.953C210.138 195.372 211.823 194.464 212.748 194.39C214.113 194.272 215.121 194.945 215.121 194.945L216.272 213.726Z" fill="#443F34"></path><path d="M76.9992 77.4929L56.6778 174.422C55.1593 181.676 63.0838 187.606 70.7237 184.924L178.832 146.988C186.472 144.306 187.848 135.108 181.287 130.696L93.5008 71.7026C87.3201 67.5468 78.4347 70.6663 76.9992 77.4929Z" fill="#F2D44D"></path><path d="M66.8682 190.212C63.3212 190.212 59.8571 189.101 56.9863 186.954C52.5614 183.653 50.5684 178.642 51.636 173.557L71.9575 76.6278C72.9658 71.8417 76.5722 67.9316 81.6021 66.1582C86.644 64.3847 92.2314 65.0685 96.5733 67.985L184.36 126.978C188.963 130.076 191.252 134.98 190.481 140.108C189.71 145.236 186.056 149.413 180.706 151.293L72.5981 189.23C70.7237 189.892 68.79 190.212 66.8801 190.212H66.8682ZM87.2846 74.4484C86.6321 74.4484 85.9796 74.5552 85.339 74.7902C83.5951 75.3992 82.4088 76.6919 82.0529 78.3478L61.7315 175.288C61.2095 177.777 62.8348 179.305 63.5584 179.839C64.2821 180.384 66.2395 181.538 68.8612 180.619L176.969 142.683C179.591 141.764 180.172 139.713 180.291 138.879C180.422 138.046 180.469 135.931 178.215 134.414L90.4283 75.4206C89.4792 74.7902 88.3997 74.4591 87.2846 74.4591V74.4484Z" fill="#DDC143"></path><path d="M112.707 129.702C113.514 131.572 111.853 133.228 110.465 133.719C109.089 134.2 107.404 133.986 107.404 133.986L90.2622 98.9773C88.7437 95.9218 91.5553 93.2403 93.3703 92.5993C96.0514 91.6592 98.4952 92.5032 98.4952 92.5032L112.707 129.702ZM113.466 140.193C116.314 139.189 119.564 140.471 120.667 143.035C121.771 145.599 120.323 148.441 117.464 149.445C114.617 150.449 111.497 149.21 110.382 146.646C109.267 144.082 110.607 141.198 113.455 140.193H113.466Z" fill="#443F34"></path><path d="M479.465 122.149V118.709L477.259 117.566C477.152 117.299 477.034 117.043 476.903 116.786L477.567 114.575L474.863 112.139L472.407 112.738C472.122 112.62 471.838 112.513 471.541 112.417L470.272 110.43H466.452L465.182 112.417C464.886 112.513 464.601 112.62 464.316 112.738L461.861 112.139L459.156 114.575L459.82 116.786C459.69 117.043 459.571 117.299 459.464 117.566L457.258 118.709V122.149L459.464 123.293C459.571 123.56 459.69 123.816 459.82 124.072L459.156 126.284L461.861 128.72L464.316 128.121C464.601 128.239 464.886 128.346 465.182 128.442L466.452 130.429H470.272L471.541 128.442C471.838 128.346 472.122 128.239 472.407 128.121L474.863 128.72L477.567 126.284L476.903 124.072C477.034 123.816 477.152 123.56 477.259 123.293L479.465 122.149ZM468.35 125.643C465.159 125.643 462.561 123.314 462.561 120.429C462.561 117.545 465.147 115.216 468.35 115.216C471.553 115.216 474.139 117.545 474.139 120.429C474.139 123.314 471.553 125.643 468.35 125.643Z" fill="#7D8E44"></path><path d="M36.7716 194.924V191.484L34.5651 190.341C34.4583 190.074 34.3397 189.817 34.2092 189.561L34.8735 187.349L32.1688 184.914L29.7131 185.512C29.4284 185.394 29.1437 185.287 28.8471 185.191L27.5778 183.204H23.7578L22.4885 185.191C22.1919 185.287 21.9072 185.394 21.6225 185.512L19.1668 184.914L16.4621 187.349L17.1264 189.561C16.9959 189.817 16.8773 190.074 16.7705 190.341L14.564 191.484V194.924L16.7705 196.067C16.8773 196.334 16.9959 196.59 17.1264 196.847L16.4621 199.058L19.1668 201.494L21.6225 200.896C21.9072 201.013 22.1919 201.12 22.4885 201.216L23.7578 203.203H27.5778L28.8471 201.216C29.1437 201.12 29.4284 201.013 29.7131 200.896L32.1688 201.494L34.8735 199.058L34.2092 196.847C34.3397 196.59 34.4583 196.334 34.5651 196.067L36.7716 194.924ZM25.6559 198.417C22.4648 198.417 19.8668 196.088 19.8668 193.204C19.8668 190.319 22.4529 187.99 25.6559 187.99C28.859 187.99 31.4451 190.319 31.4451 193.204C31.4451 196.088 28.859 198.417 25.6559 198.417Z" fill="#7D8E44"></path><path d="M50.4734 106.713V100.826L46.7009 98.8603C46.523 98.4009 46.3213 97.9629 46.084 97.5249L47.211 93.7323L42.5844 89.5658L38.373 90.5807C37.8985 90.3778 37.4003 90.1961 36.8902 90.0252L34.7073 86.6279H28.1708L25.988 90.0252C25.4779 90.1855 24.9915 90.3671 24.5051 90.5807L20.2937 89.5658L15.6671 93.7323L16.7941 97.5249C16.5687 97.9522 16.3671 98.4009 16.1772 98.8603L12.4048 100.826V106.713L16.1772 108.678C16.3552 109.138 16.5569 109.576 16.7941 110.014L15.6671 113.806L20.2937 117.973L24.5051 116.958C24.9796 117.161 25.4779 117.342 25.988 117.513L28.1708 120.911H34.7073L36.8902 117.513C37.4003 117.353 37.8867 117.171 38.373 116.958L42.5844 117.973L47.211 113.806L46.084 110.014C46.3094 109.586 46.5111 109.138 46.7009 108.678L50.4734 106.713ZM31.445 112.684C25.9761 112.684 21.5393 108.689 21.5393 103.764C21.5393 98.8389 25.9761 94.8434 31.445 94.8434C36.9139 94.8434 41.3507 98.8389 41.3507 103.764C41.3507 108.689 36.9139 112.684 31.445 112.684Z" fill="#7D8E44"></path><path d="M496.857 258.992L486.026 233.672C485.492 232.423 484.306 231.525 482.835 231.269C481.375 231.012 479.892 231.45 478.884 232.433L458.385 252.315C457.305 253.362 456.961 254.783 457.448 256.139C457.768 257.015 458.397 257.731 459.215 258.201C459.666 258.458 460.164 258.629 460.71 258.725L492.04 264.163C493.594 264.43 495.125 263.938 496.133 262.849C497.141 261.759 497.414 260.317 496.845 258.981L496.857 258.992Z" fill="#7D8E44"></path><path d="M479.821 251.044C479.667 251.749 478.825 251.962 478.303 251.866C477.781 251.781 477.318 251.428 477.318 251.428L479.537 237.946C479.726 236.771 481.138 236.44 481.814 236.557C482.823 236.728 483.38 237.401 483.38 237.401L479.821 251.044ZM477.84 254.334C478.908 254.516 479.62 255.456 479.406 256.428C479.193 257.4 478.161 257.998 477.093 257.817C476.025 257.635 475.349 256.727 475.551 255.766C475.752 254.804 476.773 254.163 477.84 254.345V254.334Z" fill="#657338"></path><path d="M66.3461 240.937L38.195 223.587C36.8071 222.733 35.0513 222.583 33.5091 223.192C31.9669 223.801 30.8992 225.062 30.6501 226.557L25.7032 256.951C25.4422 258.543 26.1422 260.081 27.5539 261.054C28.4792 261.684 29.5706 261.994 30.6738 261.951C31.267 261.93 31.8602 261.801 32.4414 261.577L65.5394 248.533C67.1765 247.892 68.2561 246.546 68.4221 244.943C68.5882 243.341 67.8053 241.834 66.3342 240.926L66.3461 240.937Z" fill="#7D8E44"></path><path d="M44.7908 243.384C45.1467 244.121 44.5061 244.815 43.9604 245.029C43.4147 245.243 42.7266 245.179 42.7266 245.179L35.1817 231.323C34.5174 230.115 35.5969 228.994 36.3206 228.705C37.3764 228.288 38.3848 228.588 38.3848 228.588L44.7908 243.363V243.384ZM45.2891 247.593C46.4161 247.144 47.7447 247.615 48.243 248.629C48.7412 249.644 48.2074 250.809 47.0685 251.258C45.9415 251.706 44.6603 251.258 44.1621 250.232C43.6638 249.206 44.1621 248.031 45.2772 247.582L45.2891 247.593Z" fill="#657338"></path><path d="M152.65 59.1396L150.527 41.2879C150.42 40.4012 149.827 39.6533 148.949 39.258C148.059 38.8734 147.039 38.9269 146.208 39.3969L129.327 48.9478C128.438 49.4499 127.951 50.3046 128.01 51.2447C128.046 51.8536 128.307 52.4092 128.746 52.8365C128.983 53.0715 129.268 53.2638 129.6 53.4027L148.605 61.7036C149.542 62.1096 150.621 62.0348 151.476 61.49C152.33 60.9451 152.781 60.0691 152.662 59.1289L152.65 59.1396Z" fill="#7D8E44"></path><path d="M143.266 51.4367C143.041 51.8641 142.448 51.8641 142.139 51.7252C141.819 51.5863 141.594 51.2872 141.594 51.2872L145.568 43.0076C145.912 42.2812 146.873 42.2918 147.288 42.4735C147.893 42.7405 148.13 43.2533 148.13 43.2533L143.266 51.4261V51.4367ZM141.368 53.2315C142.021 53.52 142.293 54.2251 141.973 54.8127C141.653 55.4002 140.882 55.6246 140.229 55.3361C139.577 55.0584 139.316 54.3746 139.636 53.7871C139.956 53.1995 140.716 52.9538 141.368 53.2315Z" fill="#657338"></path><path d="M17.5297 147.01C18.3127 147.619 18.0279 148.633 17.5653 149.104C17.1145 149.574 16.3671 149.809 16.3671 149.809L0.862083 138.698C-0.502169 137.737 0.0198022 136.07 0.612956 135.461C1.49082 134.553 2.70086 134.425 2.70086 134.425L17.5178 147.01H17.5297ZM20.365 151.187C21.3021 150.215 22.9511 150.118 24.0188 150.952C25.0865 151.785 25.1814 153.249 24.2442 154.221C23.307 155.193 21.7292 155.289 20.6497 154.445C19.5701 153.601 19.4278 152.148 20.365 151.176V151.187Z" fill="#7D8E44"></path><path d="M479.655 193.781C478.635 194.903 476.879 194.539 476.049 193.931C475.219 193.322 474.768 192.285 474.768 192.285L493.239 170.117C494.84 168.173 497.723 168.814 498.814 169.626C500.428 170.812 500.701 172.511 500.701 172.511L479.655 193.792V193.781ZM472.573 197.937C474.281 199.208 474.542 201.505 473.131 203.043C471.731 204.582 469.216 204.763 467.508 203.492C465.799 202.231 465.55 200.02 466.962 198.471C468.374 196.922 470.865 196.665 472.573 197.926V197.937Z" fill="#7D8E44"></path><path d="M106.206 44.3754C106.859 45.7001 105.72 46.9501 104.735 47.3454C103.75 47.7406 102.529 47.6338 102.529 47.6338L88.7674 22.8486C87.5455 20.6906 89.4792 18.6501 90.7723 18.1373C92.6704 17.3787 94.4736 17.9022 94.4736 17.9022L106.206 44.3754ZM107.155 51.9392C109.184 51.1272 111.568 51.9499 112.482 53.7767C113.383 55.5929 112.446 57.6975 110.418 58.5094C108.401 59.3213 106.088 58.5307 105.186 56.7039C104.284 54.8771 105.138 52.7511 107.155 51.9392Z" fill="#7D8E44"></path><path d="M414.42 54.5352C414.1 55.3792 412.997 55.5181 412.356 55.3258C411.727 55.1335 411.217 54.6207 411.217 54.6207L416.627 38.1791C417.089 36.7369 418.916 36.5553 419.747 36.8117C420.969 37.1856 421.526 38.115 421.526 38.115L414.408 54.5459L414.42 54.5352ZM411.3 58.3171C412.593 58.7231 413.293 60.0051 412.842 61.1695C412.392 62.334 410.98 62.9323 409.687 62.5263C408.394 62.1204 407.718 60.8918 408.168 59.7166C408.619 58.5415 409.995 57.9111 411.3 58.3171Z" fill="#7D8E44"></path><path d="M392.474 25.8611L380.16 2.14422C379.555 0.969063 378.333 0.178496 376.909 0.0289298C375.486 -0.131319 374.098 0.381483 373.196 1.38571L354.939 21.7587C353.978 22.8271 353.753 24.2266 354.322 25.4979C354.69 26.3205 355.354 26.9722 356.184 27.3781C356.635 27.5918 357.133 27.7414 357.655 27.7948L388.215 31.1387C389.733 31.2989 391.169 30.7434 392.058 29.6323C392.948 28.5212 393.102 27.1111 392.462 25.8718L392.474 25.8611Z" fill="#7D8E44"></path><path d="M375.486 19.2479C375.391 19.9316 374.584 20.188 374.086 20.1346C373.576 20.0812 373.113 19.7713 373.113 19.7713L374.24 6.66295C374.335 5.51984 375.664 5.11388 376.328 5.18866C377.313 5.29549 377.894 5.90444 377.894 5.90444L375.486 19.2479ZM373.825 22.5276C374.869 22.6452 375.616 23.4998 375.497 24.4399C375.379 25.3801 374.418 26.0318 373.374 25.9142C372.33 25.7967 371.606 24.9741 371.737 24.034C371.867 23.0938 372.793 22.4208 373.837 22.5276H373.825Z" fill="#657338"></path><path d="M256.25 43.8305C249.666 43.7985 243.557 44.2899 237.969 45.2193C237.969 45.2193 206.983 66.6821 223.069 89.4375C238.776 111.669 249.512 131.626 250.01 154.435L255.681 154.456L269.264 154.509C269.335 140.61 285.516 125.985 304.794 96.6914C324.071 67.3978 301.045 44.0121 256.25 43.8198V43.8305Z" fill="#F2D44D"></path><path d="M281.376 132.886L277.022 138.976C277.022 138.976 278.802 136.753 281.376 132.886Z" fill="#7D8E44"></path><path d="M294.39 51.8212C297.522 57.0988 300.583 66.2223 300.049 81.5208C299.586 94.5864 295.185 107.15 290.345 117.171C294.782 111.199 299.669 104.468 304.794 96.691C317.321 77.6534 311.971 61.1157 294.39 51.8105V51.8212Z" fill="#FFED97"></path><path d="M237.969 45.219C205.548 50.6034 190.98 71.158 207.161 96.2851C226.13 125.739 242.157 140.503 242.086 154.402L250.01 154.434C249.512 131.625 238.776 111.669 223.069 89.4371C206.983 66.6817 237.969 45.219 237.969 45.219Z" fill="#DDC143"></path><path d="M270.088 154.537L241.237 154.415C240.523 154.412 239.942 154.931 239.938 155.574L239.921 158.853C239.918 159.496 240.494 160.02 241.208 160.023L270.059 160.146C270.773 160.149 271.354 159.63 271.358 158.987L271.375 155.707C271.378 155.064 270.802 154.54 270.088 154.537Z" fill="#443F34"></path><path d="M270.071 160.135L241.22 160.013C240.506 160.01 239.924 160.528 239.921 161.172L239.904 164.451C239.9 165.094 240.477 165.618 241.191 165.621L270.041 165.744C270.756 165.747 271.337 165.228 271.341 164.585L271.358 161.305C271.361 160.662 270.785 160.138 270.071 160.135Z" fill="#443F34"></path><path d="M270.03 165.744L241.179 165.621C240.465 165.618 239.883 166.137 239.88 166.78L239.863 170.06C239.859 170.703 240.436 171.227 241.15 171.23L270 171.352C270.715 171.355 271.296 170.836 271.3 170.193L271.317 166.914C271.32 166.27 270.744 165.747 270.03 165.744Z" fill="#443F34"></path><path d="M262.909 168.523L248.27 168.461C247.556 168.458 246.974 168.977 246.971 169.62L246.954 172.9C246.95 173.543 247.527 174.066 248.241 174.069L262.88 174.132C263.594 174.135 264.175 173.616 264.179 172.973L264.196 169.693C264.199 169.05 263.623 168.526 262.909 168.523Z" fill="#443F34"></path><path d="M246.463 157.362C245.835 155.171 231.207 103.614 236.19 96.6377C237.649 94.5972 239.832 94.1379 242.323 95.3451C242.703 95.5267 243.094 95.751 243.474 96.0181C244.459 93.2725 246.582 91.6914 249.666 91.4777C254.661 91.1358 258.006 93.0695 260.118 95.1528C261.743 92.8986 264.448 91.638 268.09 91.5098C270.178 91.435 271.815 92.0439 273.001 93.3152C277.889 98.55 274.081 114.34 270.059 131.059C267.829 140.322 265.515 149.905 264.863 157.351L263.677 157.265C264.341 149.755 266.654 140.14 268.885 130.835C272.669 115.109 276.584 98.8385 272.076 94.0097C271.127 92.9841 269.845 92.5247 268.113 92.5888C264.258 92.7277 262.087 94.1913 260.901 96.0288C260.996 96.1463 261.102 96.2638 261.197 96.3813C264.78 100.847 265.658 107.417 264.211 110.515C263.712 111.594 262.882 111.53 262.55 111.455C260.343 110.943 257.852 104.768 258.445 99.6825C258.599 98.3577 258.955 97.1826 259.477 96.157C257.579 94.1699 254.471 92.2255 249.726 92.546C246.962 92.7383 245.182 94.1485 244.435 96.7659C248.824 100.409 252.632 108.047 250.663 112.022C249.999 113.368 249.038 113.357 248.516 113.24C245.55 112.545 242.359 104.159 242.916 98.5287C242.964 98.0479 243.035 97.5885 243.13 97.1505C242.667 96.8087 242.205 96.5202 241.742 96.2959C239.82 95.3557 238.29 95.6762 237.175 97.2253C233.402 102.492 242.347 138.698 247.602 157.105L246.452 157.372L246.463 157.362ZM244.198 98.0052C244.162 98.2082 244.138 98.4112 244.126 98.6141C243.533 104.565 247.033 111.776 248.848 112.203C248.955 112.225 249.263 112.299 249.619 111.584C251.292 108.208 248.053 101.509 244.209 98.0052H244.198ZM260.343 97.1185C259.964 97.9945 259.75 98.924 259.655 99.7893C259.062 104.842 261.648 110.141 262.87 110.419C262.977 110.451 263.131 110.141 263.143 110.099C264.294 107.609 263.783 101.499 260.343 97.1185Z" fill="#443F34"></path></svg> 