<svg xmlns="http://www.w3.org/2000/svg" width="428.354" height="418.038" viewBox="0 0 428.354 418.038"><defs><style>.a{fill:#e3e3d8;}.b{fill:#595348;}.c{fill:#242522;}.d{fill:#443f34;}.e,.j{fill:#fff;}.f{fill:#f5f5f5;}.g{fill:#698037;}.h{opacity:0.1;}.i{fill:#7d9144;}.j{opacity:0.7;}</style></defs><g transform="translate(553.701 -530.954)"><g transform="translate(-553.701 720.348)"><path class="a" d="M-490.97,985.055c83.641,44.645,219.251,44.646,302.891,0s83.641-117.03,0-161.676-219.251-44.646-302.893,0S-574.612,940.41-490.97,985.055Z" transform="translate(553.701 -789.896)"/></g><g transform="translate(-517.305 530.954)"><path class="b" d="M-490.808,911.821a10.981,10.981,0,0,0,5.12,8.5l143.43,82.809a11.317,11.317,0,0,0,10.238,0l196.252-113.307a10.977,10.977,0,0,0,5.119-8.5,10.975,10.975,0,0,0-5.118-8.5L-279.2,790.014a11.312,11.312,0,0,0-10.238,0L-485.69,903.32A10.977,10.977,0,0,0-490.808,911.821Z" transform="translate(500.413 -600.204)"/><path class="c" d="M-431.632,902.706l-54.057,31.21a10.977,10.977,0,0,0-5.118,8.5,10.979,10.979,0,0,0,5.12,8.5l143.43,82.809a10.472,10.472,0,0,0,5.119,1.224V902.706Z" transform="translate(500.413 -630.8)"/><path class="d" d="M-499.137,834.253a10.976,10.976,0,0,1-4.8-8.683V654.406a11.315,11.315,0,0,1,5.118-8.866l196.252-113.306a10.978,10.978,0,0,1,9.922-.184,10.977,10.977,0,0,1,4.8,8.684V711.9a11.316,11.316,0,0,1-5.119,8.867L-489.216,834.07A10.973,10.973,0,0,1-499.137,834.253Z" transform="translate(503.94 -530.954)"/><path class="c" d="M-479.928,705.839l-22.513-13a10.47,10.47,0,0,0-1.5,5.045V869.049a10.976,10.976,0,0,0,4.8,8.683,10.973,10.973,0,0,0,9.92-.183l22.385-12.924Z" transform="translate(503.94 -574.434)"/><path class="b" d="M-490.808,662.2V833.364c0,3.265,2.292,4.588,5.118,2.956l196.254-113.306a11.316,11.316,0,0,0,5.119-8.867V542.984c0-3.265-2.292-4.588-5.119-2.956L-485.69,653.334A11.315,11.315,0,0,0-490.808,662.2Z" transform="translate(500.413 -533.203)"/><path class="d" d="M-484.589,909.232l143.431,82.809a11.312,11.312,0,0,0,10.238,0l196.253-113.306c2.827-1.633,2.827-4.279,0-5.911L-278.1,790.014a11.312,11.312,0,0,0-10.238,0L-484.589,903.32C-487.415,904.953-487.415,907.6-484.589,909.232Z" transform="translate(499.312 -600.204)"/><path class="e" d="M-481.173,667.592l190.746-110.126c1.7-.979,3.071-.185,3.071,1.774V707.408a6.789,6.789,0,0,1-3.071,5.32L-481.173,822.852c-1.7.979-3.071.185-3.071-1.774V672.912A6.79,6.79,0,0,1-481.173,667.592Z" transform="translate(498.65 -537.962)"/><path class="c" d="M-461.436,908.554l182.165-105.172a5.657,5.657,0,0,1,5.119,0l9.317,5.379c1.414.816,1.414,2.139,0,2.956L-447.027,916.872a5.662,5.662,0,0,1-5.119,0l-9.29-5.363C-462.85,910.693-462.85,909.37-461.436,908.554Z" transform="translate(492.809 -603.959)"/><path class="c" d="M-428.6,927.506l182.162-105.173a5.657,5.657,0,0,1,5.119,0l57.309,33.089c1.414.815,1.413,2.139,0,2.955L-365.97,963.4a5.68,5.68,0,0,1-5.124.008L-428.6,930.453C-430.017,929.641-430.019,928.322-428.6,927.506Z" transform="translate(483.991 -609.049)"/><path class="d" d="M-263.462,871.291l5.7-3.293c.243-.14.228-.375-.031-.526l-6.6-3.808a1.008,1.008,0,0,0-.91-.018l-5.7,3.293c-.242.14-.227.375.033.525l6.594,3.808A1.006,1.006,0,0,0-263.462,871.291Zm-11.255-13.084-5.7,3.293c-.242.14-.228.375.032.525l6.6,3.808a1.006,1.006,0,0,0,.91.019l5.7-3.294c.242-.14.228-.375-.032-.524l-6.6-3.808A1.008,1.008,0,0,0-274.717,858.207Zm-18.427,10.639-9.652,5.573c-.242.139-.227.374.032.524l6.6,3.808a1,1,0,0,0,.909.019l9.653-5.573c.242-.14.227-.375-.032-.525l-6.6-3.808A1.006,1.006,0,0,0-293.144,868.846Zm10.091-5.827-5.7,3.294c-.242.14-.228.375.032.525l6.6,3.808a1.007,1.007,0,0,0,.909.019l5.7-3.293c.242-.14.228-.375-.032-.526l-6.6-3.807A1.009,1.009,0,0,0-283.053,863.019Zm-22.375,12.919-5.7,3.293c-.242.14-.227.375.032.525l6.6,3.808a1,1,0,0,0,.909.019l5.7-3.294c.242-.14.228-.375-.032-.524l-6.6-3.808A1.007,1.007,0,0,0-305.428,875.938Zm-8.336,4.813-5.7,3.293c-.242.14-.227.375.032.526l6.6,3.807a1,1,0,0,0,.91.019l5.7-3.293c.243-.141.228-.375-.032-.525l-6.6-3.808A1.009,1.009,0,0,0-313.764,880.75Zm25.942,15.485,5.7-3.294c.242-.14.228-.375-.032-.525l-6.6-3.808a1.009,1.009,0,0,0-.91-.018l-5.7,3.292c-.242.14-.228.375.032.526l6.6,3.808A1.007,1.007,0,0,0-287.823,896.235Zm-8.336,4.812,5.7-3.293c.243-.14.227-.375-.033-.525l-6.594-3.807a1.007,1.007,0,0,0-.91-.02l-5.7,3.294c-.242.14-.227.375.032.525l6.6,3.808A1.006,1.006,0,0,0-296.159,901.047Zm-8.336,4.813,5.7-3.294c.242-.14.227-.375-.032-.525l-6.6-3.808a1.008,1.008,0,0,0-.91-.018l-5.7,3.293c-.243.14-.227.375.033.525l6.594,3.808A1.011,1.011,0,0,0-304.494,905.861Zm-8.336,4.812,5.7-3.293c.242-.14.227-.375-.033-.525l-6.594-3.807a1,1,0,0,0-.91-.019l-5.7,3.293c-.242.14-.228.375.032.525l6.6,3.808A1.006,1.006,0,0,0-312.83,910.673ZM-271.8,876.1l5.7-3.294c.243-.139.228-.374-.032-.524l-6.6-3.808a1,1,0,0,0-.909-.019l-5.7,3.293c-.242.14-.228.375.032.525l6.594,3.808A1.008,1.008,0,0,0-271.8,876.1Zm-7.689,15.318,12.724-7.346c.242-.141.227-.375-.033-.525l-16.017-9.247a1.006,1.006,0,0,0-.91-.019l-6.581,3.8c-.243.141-.228.375.031.526l8.48,4.9c.26.15.274.385.032.525l-5.265,3.04c-.242.14-.228.375.032.525l6.6,3.808A1.008,1.008,0,0,0-279.487,891.422Zm-42.614-5.859-5.7,3.294c-.242.14-.227.375.033.524l6.594,3.808a1.008,1.008,0,0,0,.91.018l5.7-3.293c.242-.14.228-.375-.032-.525l-6.6-3.808A1.006,1.006,0,0,0-322.1,885.563Zm-8.336,4.814-5.7,3.292c-.243.141-.228.376.032.526l6.6,3.808a1.009,1.009,0,0,0,.91.018l5.7-3.293c.243-.14.227-.375-.032-.525l-6.6-3.808A1.009,1.009,0,0,0-330.436,890.377Zm-41.656,53.968a1.008,1.008,0,0,0,.91.018l5.7-3.293c.242-.14.227-.375-.033-.526l-6.595-3.807a1.006,1.006,0,0,0-.91-.018l-5.7,3.292c-.243.141-.228.375.031.526Zm-25.032-15.466-5.7,3.293c-.243.14-.228.375.032.525l6.6,3.808a1.006,1.006,0,0,0,.91.019l5.7-3.293c.242-.14.227-.375-.033-.526l-6.594-3.807A1.006,1.006,0,0,0-397.124,928.878Zm13.416,11.292a1.006,1.006,0,0,0,.91.019l5.7-3.294c.242-.14.227-.375-.033-.524l-6.594-3.808a1.006,1.006,0,0,0-.91-.019l-5.7,3.293c-.242.141-.228.375.032.525Zm26.334,7.1,5.7-3.293c.243-.14.228-.375-.032-.525l-6.6-3.809a1.006,1.006,0,0,0-.91-.018l-5.7,3.293c-.241.139-.228.374.033.525l6.594,3.807A1,1,0,0,0-357.374,947.269Zm-9.245,4.794a1,1,0,0,0,.909.019l5.7-3.294c.242-.139.228-.374-.032-.524l-6.6-3.808a1.006,1.006,0,0,0-.91-.019l-5.7,3.294c-.242.14-.227.375.033.524Zm-22.169-28-5.7,3.293c-.243.14-.228.375.032.525l6.6,3.808a1.006,1.006,0,0,0,.91.019l5.7-3.294c.242-.14.228-.374-.033-.524l-6.594-3.808A1.006,1.006,0,0,0-388.788,924.066ZM-347.108,900l-5.7,3.293c-.242.14-.228.374.032.525l6.6,3.808a1.009,1.009,0,0,0,.91.019l5.7-3.294c.242-.14.227-.374-.032-.525l-6.6-3.808A1,1,0,0,0-347.108,900Zm-33.344,19.251-5.7,3.293c-.242.14-.227.375.032.525l6.6,3.808a1.007,1.007,0,0,0,.91.019l5.7-3.293c.242-.141.227-.375-.033-.526l-6.594-3.808A1.009,1.009,0,0,0-380.452,919.253Zm41.68-24.064-5.7,3.294c-.243.14-.228.375.033.525l6.594,3.808a1.006,1.006,0,0,0,.91.018l5.7-3.293c.242-.14.227-.375-.032-.525l-6.6-3.808A1.006,1.006,0,0,0-338.772,895.188Zm-16.672,9.626-5.7,3.293c-.242.14-.228.375.032.525l6.6,3.807a1,1,0,0,0,.911.019l5.7-3.293c.242-.14.228-.375-.032-.525l-6.6-3.807A1,1,0,0,0-355.444,904.815Zm-8.336,4.813-5.7,3.293c-.242.14-.228.375.032.525l6.6,3.808a1,1,0,0,0,.91.018l5.7-3.292c.241-.14.228-.375-.033-.526l-6.6-3.808A1.008,1.008,0,0,0-363.78,909.627Zm-8.336,4.813-5.7,3.293c-.242.14-.227.375.032.525l6.6,3.808a1.006,1.006,0,0,0,.91.019l5.7-3.294c.242-.14.227-.375-.032-.525l-6.6-3.808A1.008,1.008,0,0,0-372.116,914.44ZM-329.5,920.3l5.7-3.293c.242-.14.227-.376-.032-.525l-6.6-3.808a1.006,1.006,0,0,0-.91-.019l-5.7,3.293c-.242.14-.227.375.033.526l6.6,3.807A1.006,1.006,0,0,0-329.5,920.3Zm73.213-72.731-5.7,3.294c-.243.14-.228.374.031.525l6.6,3.808a1.008,1.008,0,0,0,.91.018l5.7-3.293c.242-.14.227-.375-.032-.525l-6.6-3.808A1.006,1.006,0,0,0-256.29,847.567Zm-10.091,5.826-5.7,3.293c-.242.14-.227.374.033.525l6.594,3.808a1.006,1.006,0,0,0,.91.018l5.7-3.292c.242-.14.227-.375-.032-.526l-6.6-3.808A1.009,1.009,0,0,0-266.381,853.394Zm18.427-10.638-5.7,3.292c-.242.14-.227.375.032.526l6.6,3.807a1,1,0,0,0,.909.019l5.7-3.293c.243-.141.228-.375-.031-.525l-6.6-3.809A1.01,1.01,0,0,0-247.954,842.755ZM-291.1,887.249l5.7-3.293c.242-.14.227-.375-.033-.526l-6.594-3.808a1.008,1.008,0,0,0-.91-.018l-5.7,3.293c-.243.14-.228.375.031.525l6.6,3.808A1.007,1.007,0,0,0-291.1,887.249Zm52.393-49.288a1.007,1.007,0,0,0-.91-.019l-5.7,3.293c-.242.141-.228.375.032.525l6.6,3.808a1.007,1.007,0,0,0,.909.018l5.7-3.293c.243-.141.229-.375-.031-.525Zm-82.458,77.525,5.7-3.293c.242-.14.227-.375-.033-.526l-6.594-3.808a1.011,1.011,0,0,0-.91-.019l-5.7,3.294c-.243.14-.228.375.032.525l6.6,3.808A1.006,1.006,0,0,0-321.166,915.486Zm102.225-59.02,5.7-3.293c.243-.14.228-.375-.032-.526l-6.6-3.807a1.006,1.006,0,0,0-.91-.018l-5.7,3.292c-.242.14-.227.375.032.526l6.6,3.807A1.006,1.006,0,0,0-218.941,856.466Zm-17.757-.627,5.7-3.293c.242-.14.228-.375-.032-.525l-6.6-3.808a1.007,1.007,0,0,0-.909-.019l-5.7,3.293c-.242.14-.228.375.032.526l6.6,3.808A1.01,1.01,0,0,0-236.7,855.839Zm7.411-12.438a1.007,1.007,0,0,0-.91-.019l-5.7,3.294c-.242.14-.228.375.032.524l6.6,3.808a1,1,0,0,0,.909.019l5.7-3.293c.242-.141.228-.375-.032-.525Zm1.755-1.013,16.016,9.247a1.009,1.009,0,0,0,.91.018l5.7-3.293c.243-.14.228-.375-.032-.525l-16.017-9.247a1.007,1.007,0,0,0-.91-.019l-5.7,3.293C-227.806,842-227.792,842.237-227.531,842.388Zm-19.337,10.62-5.7,3.293c-.242.14-.228.374.032.525l6.6,3.807a1,1,0,0,0,.91.019l5.7-3.293c.242-.14.228-.375-.032-.525l-6.6-3.808A1.006,1.006,0,0,0-246.868,853.008Zm-62.739,36.222-5.7,3.293c-.242.14-.227.375.033.525l6.594,3.808a1.006,1.006,0,0,0,.91.019l5.7-3.293c.242-.141.227-.375-.033-.525l-6.6-3.808A1.009,1.009,0,0,0-309.608,889.23Zm81.421-27.969a1.008,1.008,0,0,0,.91.018l5.7-3.293c.242-.14.227-.375-.033-.525l-6.6-3.808a1,1,0,0,0-.909-.019l-5.7,3.294c-.243.139-.228.375.032.524Zm-73.085,23.156-5.7,3.293c-.242.141-.227.375.033.525l6.6,3.808a1.008,1.008,0,0,0,.909.018l5.7-3.293c.243-.14.228-.375-.032-.525l-6.6-3.808A1.007,1.007,0,0,0-301.272,884.417Zm-62.484,55.114a1.006,1.006,0,0,0,.91.019l5.7-3.293c.241-.14.228-.375-.033-.525l-6.6-3.808a1,1,0,0,0-.909-.019l-5.7,3.294c-.243.14-.228.375.032.524Zm-12.539-11.8-5.7,3.293c-.242.14-.227.375.033.525l6.594,3.808a1.006,1.006,0,0,0,.91.018l5.7-3.292c.243-.14.228-.375-.032-.526l-6.6-3.808A1.009,1.009,0,0,0-376.3,927.732Zm21.785,7,5.7-3.293c.243-.14.229-.375-.031-.526l-6.6-3.807a1.009,1.009,0,0,0-.91-.019l-5.7,3.293c-.241.14-.227.375.033.526l6.6,3.807A1.007,1.007,0,0,0-354.511,934.737Zm8.336-4.813,5.7-3.293c.243-.141.228-.375-.031-.525l-6.6-3.808a1.009,1.009,0,0,0-.91-.018l-5.7,3.293c-.241.14-.227.375.033.525l6.6,3.808A1,1,0,0,0-346.175,929.924Zm8.336-4.813,5.7-3.292c.242-.14.228-.375-.032-.526l-6.6-3.808a1.009,1.009,0,0,0-.91-.018l-5.7,3.293c-.243.14-.228.375.032.525l6.6,3.808A1,1,0,0,0-337.839,925.111Zm-30.12-2.191-5.7,3.293c-.242.14-.227.375.032.525l6.6,3.808a1,1,0,0,0,.909.018l5.7-3.293c.243-.14.228-.375-.032-.525l-6.6-3.808A1.006,1.006,0,0,0-367.959,922.919Zm8.336-4.813-5.7,3.293c-.242.141-.228.375.032.526l6.6,3.808a1.006,1.006,0,0,0,.91.019l5.7-3.293c.242-.14.228-.375-.032-.525l-6.6-3.808A1.01,1.01,0,0,0-359.623,918.106Zm33.344-19.25-5.7,3.292c-.243.14-.227.375.033.526l6.594,3.807a1,1,0,0,0,.91.019l5.7-3.293c.242-.14.228-.375-.032-.526l-6.6-3.807A1.006,1.006,0,0,0-326.28,898.856Zm-8.336,4.812-5.7,3.294c-.242.14-.228.375.032.525l6.6,3.808a1.008,1.008,0,0,0,.91.018l5.7-3.293c.242-.14.228-.375-.032-.525l-6.6-3.808A1.006,1.006,0,0,0-334.616,903.668Zm16.672-9.625-5.7,3.293c-.242.14-.228.375.033.525l6.594,3.808a1.008,1.008,0,0,0,.91.018l5.7-3.294c.243-.14.227-.375-.032-.524l-6.6-3.808A1.006,1.006,0,0,0-317.944,894.042Zm-33.343,19.251-5.7,3.294c-.243.14-.229.375.031.524l6.6,3.809a1,1,0,0,0,.909.018l5.7-3.293c.242-.14.228-.375-.032-.525l-6.6-3.807A1,1,0,0,0-351.287,913.293Zm8.335-4.813-5.7,3.294c-.242.14-.228.375.033.525l6.6,3.808a1.008,1.008,0,0,0,.909.019l5.7-3.294c.242-.14.228-.375-.032-.525l-6.6-3.808A1.009,1.009,0,0,0-342.952,908.481Zm-6.086,33.976,5.7-3.293c.243-.14.228-.375-.031-.525l-6.6-3.808a1.006,1.006,0,0,0-.91-.019l-5.7,3.293c-.242.14-.227.375.033.526l6.594,3.808A1.011,1.011,0,0,0-349.038,942.456Zm-48.917-4.938-6.6-3.808a1.006,1.006,0,0,0-.91-.019l-5.7,3.293c-.243.14-.228.375.032.524l6.594,3.809a1.01,1.01,0,0,0,.911.018l5.7-3.293C-397.681,937.9-397.7,937.668-397.955,937.518Zm12.493,3.666-6.6-3.807a1.006,1.006,0,0,0-.91-.019l-8.775,5.066c-.243.14-.227.375.033.526l6.594,3.807a1.007,1.007,0,0,0,.91.019l8.775-5.066C-385.188,941.569-385.2,941.334-385.462,941.184Zm-22.612-11.028-6.595-3.807a1.007,1.007,0,0,0-.91-.019l-7.02,4.053c-.242.14-.228.376.032.525l6.6,3.808a1.006,1.006,0,0,0,.91.019l7.02-4.053C-407.8,930.542-407.814,930.306-408.074,930.155Zm5.382-3.107a1,1,0,0,0,.909.019l5.7-3.294c.242-.14.228-.374-.032-.524l-6.6-3.808a1.007,1.007,0,0,0-.91-.019l-5.7,3.293c-.243.14-.228.375.031.525Zm28.844,18.309-6.594-3.808a1.006,1.006,0,0,0-.91-.018l-10.969,6.332c-.242.14-.228.375.033.525l6.594,3.809a1.009,1.009,0,0,0,.91.018l10.968-6.333C-373.572,945.743-373.587,945.507-373.847,945.357Zm5.473,7.719-6.6-3.807a1.007,1.007,0,0,0-.909-.019l-7.02,4.053c-.243.14-.228.376.032.525l6.6,3.808a1.009,1.009,0,0,0,.91.018l7.02-4.053C-368.1,953.462-368.115,953.226-368.374,953.076Zm27.661-61.81a1.007,1.007,0,0,0,.909.019l5.7-3.294c.242-.14.228-.374-.032-.524l-6.594-3.809a1.01,1.01,0,0,0-.911-.018l-5.7,3.293c-.242.14-.227.375.032.525Zm-16.673,9.625a1.006,1.006,0,0,0,.91.019l5.7-3.294c.243-.14.228-.375-.032-.525l-6.6-3.808a1.008,1.008,0,0,0-.91-.018l-5.7,3.293c-.242.14-.228.374.032.525Zm-36.971,21.345a1.006,1.006,0,0,0,.91.019l5.7-3.293c.242-.14.228-.375-.032-.525l-6.6-3.809a1.011,1.011,0,0,0-.91-.018l-5.7,3.293c-.242.14-.228.375.033.526Zm45.307-26.158a1.006,1.006,0,0,0,.91.018l5.7-3.293c.242-.14.227-.375-.033-.525l-6.6-3.808a1.006,1.006,0,0,0-.91-.018l-5.7,3.293c-.243.14-.228.375.031.525Zm-16.672,9.626a1.008,1.008,0,0,0,.91.018l5.7-3.292c.243-.14.228-.376-.032-.526l-6.6-3.807a1,1,0,0,0-.91-.019l-5.7,3.293c-.242.141-.227.375.033.526Zm1.929,47.991a1.008,1.008,0,0,0-.91-.019l-8.775,5.066c-.242.14-.227.375.032.526l6.6,3.807a1,1,0,0,0,.91.019l8.775-5.066c.243-.14.227-.375-.033-.526Zm-13.892-41.085a1.008,1.008,0,0,0,.91.019l5.7-3.293c.243-.14.228-.375-.032-.526L-377.7,905a1.008,1.008,0,0,0-.91-.018l-5.7,3.293c-.242.14-.227.375.033.525Zm-8.336,4.814a1.008,1.008,0,0,0,.91.018l5.7-3.293c.243-.14.228-.376-.032-.525l-6.6-3.808a1.006,1.006,0,0,0-.91-.019l-5.7,3.293c-.242.14-.227.375.033.525Zm176.663-52.892a1.008,1.008,0,0,0-.91-.019l-14.04,8.106c-.242.14-.228.375.032.525l6.6,3.808a1.006,1.006,0,0,0,.91.018l14.039-8.106c.242-.14.228-.375-.032-.525Zm-18.427,10.639a1,1,0,0,0-.909-.019l-5.7,3.293c-.243.14-.228.375.032.526l6.6,3.808a1.008,1.008,0,0,0,.91.018l5.7-3.293c.242-.139.227-.375-.033-.525ZM-340.7,937.644l5.7-3.293c.242-.141.227-.375-.033-.526l-6.6-3.808a1.008,1.008,0,0,0-.91-.018l-5.7,3.293c-.243.14-.228.375.032.525l6.594,3.808A1.008,1.008,0,0,0-340.7,937.644Zm96.244-52.848a1.008,1.008,0,0,0-.91-.018l-5.7,3.293c-.242.14-.227.375.033.525l6.594,3.808a1.009,1.009,0,0,0,.91.018l5.7-3.293c.243-.14.228-.375-.031-.525Zm43.435-25.077a1.006,1.006,0,0,0-.91-.019l-5.7,3.294c-.242.14-.228.375.032.524l6.6,3.808a1.006,1.006,0,0,0,.91.019l5.7-3.293c.242-.141.227-.375-.032-.525Zm14.931-1.005-16.017-9.247a1,1,0,0,0-.909-.019l-5.7,3.294c-.243.14-.228.375.032.524l16.017,9.248a1.011,1.011,0,0,0,.91.019l5.7-3.294C-185.816,859.1-185.831,858.864-186.091,858.714Zm-89.517,44.066a1.007,1.007,0,0,0-.909-.018l-7.02,4.053c-.242.14-.228.375.032.525l6.6,3.808a1.006,1.006,0,0,0,.91.018l7.019-4.053c.243-.14.228-.375-.032-.525Zm21.06-12.158a1.008,1.008,0,0,0-.91-.019l-8.775,5.067c-.242.14-.227.374.032.525l6.6,3.808a1.007,1.007,0,0,0,.909.018l8.775-5.066c.243-.14.228-.375-.032-.525Zm-40.363,23.3a1.01,1.01,0,0,0-.911-.018l-46.944,27.1c-.243.14-.229.375.031.525l6.6,3.808a1.007,1.007,0,0,0,.909.019l46.945-27.1c.242-.14.227-.375-.033-.526Zm-49.578,28.624a1.007,1.007,0,0,0-.91-.019l-7.02,4.053c-.242.14-.227.375.033.525l6.594,3.808a1.008,1.008,0,0,0,.91.018l7.021-4.053c.241-.14.227-.374-.033-.524Zm59.229-34.2a1.008,1.008,0,0,0-.91-.018l-7.019,4.053c-.243.14-.228.375.031.525l6.6,3.807a1,1,0,0,0,.91.02l7.019-4.053c.242-.14.227-.375-.033-.524Zm-68.882,39.769a1.009,1.009,0,0,0-.91-.018l-7.019,4.053c-.242.141-.227.375.033.525l6.594,3.808a1.006,1.006,0,0,0,.91.019l7.019-4.053c.243-.141.228-.375-.031-.526Zm88.186-50.913a1,1,0,0,0-.91-.019l-7.02,4.053c-.241.14-.227.375.033.525l6.6,3.808a1,1,0,0,0,.909.018l7.02-4.053c.243-.14.228-.375-.032-.525Zm29.834-17.226a1.01,1.01,0,0,0-.911-.018l-5.7,3.293c-.242.14-.227.375.033.525l6.6,3.808a1.006,1.006,0,0,0,.91.019l5.7-3.293c.243-.14.228-.375-.032-.526Zm18.264-13.265,5.7-3.293c.243-.14.229-.375-.031-.526l-6.6-3.807a1.006,1.006,0,0,0-.91-.018l-5.7,3.292c-.241.14-.227.375.033.526l6.6,3.807A1,1,0,0,0-217.856,866.718Zm-37.269-.241,5.7-3.293c.243-.14.228-.375-.031-.525l-6.6-3.807a1,1,0,0,0-.91-.019l-5.7,3.293c-.243.14-.228.375.032.525l6.594,3.808A1.008,1.008,0,0,0-255.125,866.477Zm-18.888,32.664,16.672-9.625c.242-.14.227-.375-.033-.525l-6.594-3.808a1.008,1.008,0,0,0-.91-.019l-16.672,9.626c-.243.139-.228.375.032.525l6.6,3.807A1,1,0,0,0-274.013,899.141Zm46.912-27.628a1.007,1.007,0,0,0,.909.018l5.7-3.293c.243-.14.228-.374-.032-.525l-6.6-3.808a1,1,0,0,0-.909-.019l-5.7,3.293c-.241.14-.227.375.033.525Zm-8.512-5.421,5.7-3.294c.241-.14.227-.375-.033-.525l-6.594-3.808a1.006,1.006,0,0,0-.91-.019l-5.7,3.293c-.243.14-.229.375.031.526l6.6,3.808A1.007,1.007,0,0,0-235.613,866.092Zm-46.736,37.862,5.7-3.293c.242-.14.227-.374-.033-.525l-6.595-3.808a1.008,1.008,0,0,0-.911-.019l-5.7,3.294c-.242.14-.228.374.033.525l6.6,3.808A1.006,1.006,0,0,0-282.349,903.954Zm36.821-21.8a1.006,1.006,0,0,0,.91.019l5.7-3.294c.243-.14.227-.375-.032-.524l-6.6-3.808a1.006,1.006,0,0,0-.91-.019l-5.7,3.293c-.242.14-.228.375.033.525Zm-78.5,45.867,5.7-3.294c.242-.14.227-.375-.033-.525l-6.6-3.807a1.006,1.006,0,0,0-.91-.019l-5.7,3.293c-.243.14-.228.375.031.525l6.6,3.808A1.007,1.007,0,0,0-324.029,928.018Zm8.336-4.813,5.7-3.294c.242-.14.228-.374-.033-.525l-6.6-3.808a1,1,0,0,0-.909-.018l-5.7,3.293c-.243.14-.228.375.031.525l6.6,3.808A1.008,1.008,0,0,0-315.693,923.205Zm-16.672,9.625,5.7-3.293c.242-.14.227-.374-.033-.525l-6.594-3.807a1.006,1.006,0,0,0-.911-.019l-5.7,3.293c-.242.14-.227.375.032.525l6.6,3.809A1.009,1.009,0,0,0-332.365,932.83Zm33.343-19.251,5.7-3.292c.243-.141.228-.376-.032-.526l-6.594-3.808a1.012,1.012,0,0,0-.911-.019l-5.7,3.293c-.241.14-.228.374.033.524l6.594,3.809A1.008,1.008,0,0,0-299.022,913.579Zm-8.336,4.813,5.7-3.293c.243-.14.228-.375-.032-.525l-6.6-3.808a1.006,1.006,0,0,0-.91-.018l-5.7,3.292c-.242.14-.227.376.033.526l6.6,3.808A1,1,0,0,0-307.358,918.392Zm16.672-9.625,5.7-3.293c.242-.14.228-.375-.032-.525l-6.6-3.808a1.006,1.006,0,0,0-.91-.018l-5.7,3.293c-.242.14-.227.375.033.525l6.594,3.808A1.006,1.006,0,0,0-290.686,908.767Zm38.138-71.2a1.006,1.006,0,0,0,.91.019l5.7-3.294c.242-.14.227-.374-.033-.524l-1.755-1.014a1.006,1.006,0,0,0-.91-.019l-5.7,3.294c-.241.14-.227.375.033.524Zm-41.015,26.474a1.007,1.007,0,0,0,.91.018l5.7-3.293c.242-.14.227-.374-.033-.525l-6.594-3.807a1,1,0,0,0-.91-.02l-5.7,3.294c-.243.14-.228.375.031.525Zm16.672-9.625a1.007,1.007,0,0,0,.909.018l5.7-3.293c.243-.14.228-.375-.031-.525l-6.6-3.808a1.006,1.006,0,0,0-.91-.019l-5.7,3.293c-.241.14-.227.375.033.525Zm-26.851,15.5a1.006,1.006,0,0,0,.91.018l5.7-3.293c.242-.14.227-.375-.032-.525l-6.6-3.808a1.006,1.006,0,0,0-.91-.018l-5.7,3.293c-.242.14-.227.375.033.525Zm18.515-10.69a1.006,1.006,0,0,0,.91.019l5.7-3.294c.241-.14.227-.375-.033-.525l-6.6-3.807a1,1,0,0,0-.909-.019l-5.7,3.293c-.243.14-.228.375.032.525Zm-35.187,20.315a1.006,1.006,0,0,0,.91.018l5.7-3.293c.242-.14.227-.375-.032-.525l-6.6-3.808a1.006,1.006,0,0,0-.91-.018l-5.7,3.293c-.243.14-.227.375.032.525Zm8.336-4.813a1.008,1.008,0,0,0,.91.018l5.7-3.293c.242-.14.227-.375-.033-.525l-6.594-3.808a1.009,1.009,0,0,0-.91-.018l-5.7,3.292c-.242.14-.227.375.032.526ZM-269.22,847.2a1.008,1.008,0,0,0,.91.018l5.7-3.294c.242-.139.227-.375-.032-.525l-1.756-1.014a1,1,0,0,0-.909-.019l-5.7,3.294c-.243.14-.229.374.031.524Zm25.008-14.439a1.006,1.006,0,0,0,.91.019l5.7-3.293c.242-.141.227-.375-.033-.525l-1.755-1.014a1.011,1.011,0,0,0-.91-.018l-5.7,3.293c-.242.14-.227.375.033.526Zm13.854,8a1.01,1.01,0,0,0,.911.019l5.7-3.293c.242-.14.227-.375-.032-.525l-6.6-3.808a1.008,1.008,0,0,0-.91-.018l-5.7,3.293c-.242.141-.227.375.033.525Zm20.84,21.15,5.7-3.294c.242-.139.228-.374-.032-.524l-6.6-3.808a1.008,1.008,0,0,0-.911-.019l-5.7,3.293c-.241.14-.227.375.033.525l6.6,3.809A1.008,1.008,0,0,0-209.519,861.905Zm-51.365-19.524a1.006,1.006,0,0,0,.91.019l5.7-3.293c.242-.14.227-.375-.033-.526l-1.755-1.013a1.006,1.006,0,0,0-.91-.019l-5.7,3.293c-.242.14-.227.375.033.526Zm-67.866,41.977a1.008,1.008,0,0,0,.91.019l5.7-3.293c.242-.141.228-.375-.032-.526l-6.6-3.808a1.007,1.007,0,0,0-.91-.019l-5.7,3.294c-.242.14-.228.375.032.525Z" transform="translate(482.139 -610.689)"/><path class="c" d="M-247.883,962.717l62.427-36.042,38.417,22.18L-209.466,984.9Z" transform="translate(435.167 -637.238)"/></g><g transform="translate(-472.986 566.507)"><path class="f" d="M-439.091,687.856l186.019-107.4c3.638-2.1,6.614-.382,6.614,3.819V728.355a6.814,6.814,0,0,1-3.071,5.32L-440.275,843.8c-1.69.975-3.071.177-3.071-1.774v-146.8A9.44,9.44,0,0,1-439.091,687.856Z" transform="translate(443.346 -579.562)"/><path class="g" d="M-246.457,587.728v-3.451c0-4.2-2.976-5.919-6.614-3.819l-186.019,107.4a9.44,9.44,0,0,0-4.255,7.371V701.4Z" transform="translate(443.346 -579.562)"/><path class="e" d="M-212.919,601.367a5.035,5.035,0,0,0-2.278,3.945c0,1.453,1.02,2.042,2.278,1.315a5.034,5.034,0,0,0,2.278-3.945C-210.641,601.229-211.661,600.64-212.919,601.367Z" transform="translate(382.069 -585.335)"/><path class="e" d="M-200.559,594.232a5.033,5.033,0,0,0-2.278,3.945c0,1.453,1.02,2.041,2.278,1.315a5.035,5.035,0,0,0,2.278-3.945C-198.282,594.093-199.3,593.5-200.559,594.232Z" transform="translate(378.749 -583.419)"/><path class="e" d="M-188.2,587.1a5.037,5.037,0,0,0-2.278,3.946c0,1.453,1.02,2.041,2.278,1.315a5.036,5.036,0,0,0,2.278-3.946C-185.922,586.958-186.942,586.37-188.2,587.1Z" transform="translate(375.43 -581.502)"/></g><g transform="translate(-487.568 658.863)"><g transform="translate(0 95.845)"><g transform="translate(35.519 0)"><rect class="d" width="8.357" height="35.457" transform="translate(17.728 0) rotate(30)"/><rect class="c" width="4.179" height="35.457" transform="translate(21.347 2.089) rotate(30)"/></g><g transform="translate(0 17.758)"><path class="g" d="M-447.2,934.062c-3.3,5.726-18.9-3.375-15.637-9.029l40.729-63.516a.792.792,0,0,1,1.063-.258l8.179,4.722a.792.792,0,0,1,.308,1.05Z" transform="translate(463.283 -861.152)"/><path class="h" d="M-444.646,935.045-410,868.015a.792.792,0,0,0-.308-1.05l-3.724-2.15-39.737,70.595C-450.136,937.188-446.138,937.631-444.646,935.045Z" transform="translate(460.729 -862.136)"/></g></g><g transform="translate(37.422 0)"><path class="g" d="M-313.747,742.8c-.012-.485-.035-.958-.071-1.431s-.059-.934-.106-1.395c-.023-.308-.059-.615-.094-.922-.083-.8-.2-1.6-.331-2.353-.059-.342-.118-.7-.189-1.04s-.13-.65-.2-.969c-.2-.875-.414-1.726-.662-2.542-.13-.391-.249-.781-.378-1.159a1,1,0,0,1-.059-.178c-.143-.378-.272-.745-.414-1.1-.165-.414-.331-.827-.52-1.218-.13-.3-.26-.579-.414-.863a4.342,4.342,0,0,0-.307-.614c-.119-.248-.248-.5-.391-.733a1.774,1.774,0,0,0-.094-.165c-.118-.213-.248-.426-.378-.638-.083-.142-.178-.272-.26-.4a21.547,21.547,0,0,0-2.033-2.707c-.129-.142-.26-.284-.378-.426-.107-.119-.213-.225-.319-.331-.13-.141-.272-.271-.414-.413a13.145,13.145,0,0,0-1.23-1.1c-.2-.178-.414-.343-.627-.5s-.425-.32-.65-.473a11.439,11.439,0,0,0-1.052-.685l-.284-.178-.059-.047h-.012l-16.752-9.671h-.023l-.1-.059a21.008,21.008,0,0,0-10.521-2.66c-5.485,0-11.68,1.8-18.241,5.58-22.533,13.016-40.809,44.663-40.809,70.7,0,12.98,4.539,22.107,11.881,26.387l.071.035v.012L-383.4,818.2c0,.012,0,.012.012.012l.071.047v-.012c.071.036.13.071.2.107.319.189.638.354.969.508.4.2.816.378,1.229.543.366.154.745.3,1.123.414a5.685,5.685,0,0,0,.6.177,4.122,4.122,0,0,0,.65.189c.225.071.437.118.662.165a3.593,3.593,0,0,0,.485.107c.284.059.591.118.886.154a.609.609,0,0,0,.2.035q.531.089,1.063.142c6.077.639,13.146-1.076,20.712-5.438,22.544-13.016,40.821-44.675,40.821-70.7C-313.712,744.03-313.723,743.415-313.747,742.8Zm-27.343-18.407a36.381,36.381,0,0,1,1.288,9.931c0,22.958-16.8,52.052-36.684,63.531a35.45,35.45,0,0,1-9.3,3.865,36.845,36.845,0,0,1-1.289-9.942c0-22.959,16.8-52.052,36.683-63.531A35.371,35.371,0,0,1-341.091,724.393Z" transform="translate(412.119 -705.833)"/><path class="h" d="M-383.969,832.667l-16.27-9.391c-7.342-4.291-11.881-13.418-11.881-26.374,0-11.609,3.641-24.33,9.658-36.01l16.762,9.666c-6.03,11.68-9.659,24.4-9.659,36.009C-395.359,819.265-391.039,828.269-383.969,832.667Z" transform="translate(412.12 -720.621)"/><path class="i" d="M-307.592,746.355c-.012-.485-.035-.958-.071-1.431s-.059-.934-.106-1.395c-.023-.308-.059-.615-.094-.922-.083-.8-.2-1.6-.331-2.353-.059-.342-.119-.7-.189-1.04s-.13-.65-.2-.969c-.2-.875-.414-1.726-.662-2.542-.13-.391-.249-.78-.378-1.159a1,1,0,0,1-.059-.178c-.143-.378-.272-.745-.414-1.1-.165-.414-.331-.827-.52-1.218-.13-.3-.26-.579-.414-.863a4.332,4.332,0,0,0-.307-.614c-.118-.248-.248-.5-.391-.733a1.779,1.779,0,0,0-.094-.165c-.118-.213-.248-.426-.378-.639-.083-.142-.178-.272-.26-.4a21.548,21.548,0,0,0-2.033-2.707c-.13-.142-.26-.284-.378-.426-.107-.118-.213-.224-.319-.331-.13-.141-.272-.271-.414-.413a13.127,13.127,0,0,0-1.229-1.1c-.2-.178-.414-.343-.627-.5s-.425-.32-.65-.473a11.423,11.423,0,0,0-1.052-.685c-7.412-4.5-17.768-3.972-29.212,2.636-22.544,13.016-40.821,44.663-40.821,70.7,0,13.182,4.682,22.391,12.236,26.576.319.189.638.354.969.508.4.2.816.378,1.229.543.366.154.745.3,1.123.414a5.7,5.7,0,0,0,.6.177,4.147,4.147,0,0,0,.65.189c.225.071.437.118.662.165a3.6,3.6,0,0,0,.485.107c.284.058.591.118.886.154a.609.609,0,0,0,.2.035q.531.089,1.063.142c6.077.639,13.146-1.076,20.712-5.438,22.544-13.016,40.821-44.675,40.821-70.7C-307.556,747.584-307.568,746.969-307.592,746.355Zm-44.923,65.386c-5.06,2.921-9.93,4.457-14.091,4.457-7.814,0-11.409-5.332-13.028-10.924a36.849,36.849,0,0,1-1.289-9.942c0-22.958,16.8-52.052,36.683-63.531a35.373,35.373,0,0,1,9.3-3.854,20.553,20.553,0,0,1,4.787-.6c12.922,0,14.305,14.589,14.305,20.866C-315.843,771.169-332.63,800.262-352.515,811.741Z" transform="translate(405.964 -709.388)"/><path class="h" d="M-312.331,751.25c0,22.958-16.787,52.052-36.672,63.531-5.06,2.921-9.93,4.457-14.091,4.457-7.814,0-11.409-5.332-13.028-10.924a35.459,35.459,0,0,0,9.3-3.866c19.884-11.479,36.683-40.573,36.683-63.531a36.379,36.379,0,0,0-1.288-9.93,20.551,20.551,0,0,1,4.787-.6C-313.714,730.384-312.331,744.973-312.331,751.25Z" transform="translate(402.452 -712.427)"/><path class="j" d="M-319.945,747.242c0,22.958-16.787,52.052-36.672,63.531-5.059,2.92-9.93,4.457-14.091,4.457a14.823,14.823,0,0,1-2.471-.2,18.1,18.1,0,0,1-3.417-6.715,36.848,36.848,0,0,1-1.289-9.942c0-22.958,16.8-52.052,36.683-63.531a35.371,35.371,0,0,1,9.3-3.854,20.55,20.55,0,0,1,4.787-.6,14.97,14.97,0,0,1,2.483.2C-320.548,735.4-319.945,743.116-319.945,747.242Z" transform="translate(402.925 -712.427)"/></g></g><g transform="translate(-338.526 564.962)"><path class="a" d="M-259.512,682.226V708.4c0,1.959,1.375,2.753,3.072,1.774l171.534-99.036a6.787,6.787,0,0,0,3.072-5.32V579.644c0-1.959-1.375-2.753-3.071-1.774l-171.534,99.037A6.788,6.788,0,0,0-259.512,682.226Z" transform="translate(259.512 -577.451)"/><g transform="translate(0 81.819)"><path class="g" d="M-256.441,706.951l30.548-17.637,0,33.27-30.544,17.634c-1.7.979-3.072.186-3.072-1.774V712.271A6.789,6.789,0,0,1-256.441,706.951Z" transform="translate(259.512 -689.314)"/><path class="e" d="M-233.542,708.908c-1.932-1.115-4.371-.936-6.866.5a17.64,17.64,0,0,0-8.09,14.012,7.586,7.586,0,0,0,1.618,5.042l-3.25,5.628a1.773,1.773,0,0,0,.649,2.422,1.764,1.764,0,0,0,.886.238,1.771,1.771,0,0,0,1.536-.887l3.252-5.63a5.755,5.755,0,0,0,1.066.109,8.294,8.294,0,0,0,4.108-1.228,17.641,17.641,0,0,0,8.089-14.012C-230.544,712.225-231.609,710.024-233.542,708.908Zm-6.866,17.14c-1.332.769-2.545.955-3.32.5s-1.224-1.589-1.224-3.128a14.2,14.2,0,0,1,6.317-10.941,4.84,4.84,0,0,1,2.327-.745,1.958,1.958,0,0,1,.992.241c.778.449,1.224,1.589,1.224,3.128A14.2,14.2,0,0,1-240.408,726.048Z" transform="translate(257.056 -694.382)"/></g></g></g></svg>