<?xml version="1.0" encoding="UTF-8"?> <svg xmlns="http://www.w3.org/2000/svg" width="406" height="332" viewBox="0 0 406 332" fill="none"><path d="M405.506 265.956C405.506 302.431 314.73 332 202.753 332C90.7756 332 0 302.431 0 265.956C0 229.481 90.7756 199.914 202.753 199.914C314.73 199.914 405.506 229.482 405.506 265.956Z" fill="#7D8E44" fill-opacity="0.7"></path><path d="M340.551 8.0332H331.272V16.0655H340.551V8.0332Z" fill="#F2D44D"></path><path d="M340.551 23.2051H331.272V31.2373H340.551V23.2051Z" fill="#F2D44D"></path><path d="M255.182 290.946H149.397L159.184 249H245.395L255.182 290.946Z" fill="#443F34"></path><path d="M263.433 290.945H141.145C137.427 290.945 133.861 292.45 131.232 295.128C128.603 297.806 127.127 301.438 127.126 305.225H277.451C277.451 301.438 275.974 297.806 273.345 295.128C270.716 292.45 267.151 290.945 263.433 290.945Z" fill="#595348"></path><path d="M381.379 13.7639V209.731H23.1978V13.7639C23.1974 11.9563 23.5667 10.1663 24.2845 8.49624C25.0024 6.82617 26.0547 5.30871 27.3815 4.03054C28.7082 2.75238 30.2833 1.73854 32.0168 1.04697C33.7504 0.355399 35.6084 -0.000359041 37.4847 5.21173e-07H367.085C368.961 -0.000496933 370.82 0.355121 372.554 1.04656C374.288 1.73799 375.864 2.7517 377.191 4.0298C378.518 5.3079 379.571 6.82536 380.29 8.49553C381.009 10.1657 381.379 11.9559 381.379 13.7639Z" fill="#443F34"></path><path d="M36.1895 197.236V13.441C36.1898 13.1899 36.2935 12.9493 36.478 12.7718C36.6624 12.5943 36.9125 12.4945 37.1734 12.4941H368.333C368.594 12.4944 368.844 12.5943 369.028 12.7718C369.213 12.9493 369.316 13.1899 369.317 13.441V197.236H36.1895Z" fill="#7D8E44"></path><path d="M381.379 209.73V235.221C381.38 237.031 381.011 238.823 380.293 240.495C379.575 242.167 378.522 243.686 377.195 244.966C375.867 246.245 374.291 247.26 372.556 247.952C370.821 248.644 368.962 249 367.085 248.999H37.4847C35.608 248.999 33.7498 248.642 32.0161 247.949C30.2825 247.257 28.7074 246.242 27.3807 244.962C26.054 243.683 25.0018 242.164 24.2841 240.493C23.5664 238.821 23.1972 237.03 23.1978 235.221V209.73H381.379Z" fill="#595348"></path><path d="M202.753 237.399C207.109 237.399 210.64 233.802 210.64 229.366C210.64 224.93 207.109 221.334 202.753 221.334C198.397 221.334 194.865 224.93 194.865 229.366C194.865 233.802 198.397 237.399 202.753 237.399Z" fill="#F2F2F2"></path><path d="M75.3553 74.603C75.3553 69.0264 77.6813 63.6781 81.8216 59.7348C85.9619 55.7916 91.5773 53.5762 97.4326 53.5762V37.4844C89.7244 37.4844 82.1894 39.6613 75.7803 43.74C69.3712 47.8186 64.3759 53.6158 61.4261 60.3983C58.4764 67.1809 57.7046 74.6442 59.2083 81.8446C60.7121 89.0449 64.4239 95.6588 69.8744 100.85L81.8216 89.4713C79.7684 87.5209 78.1402 85.2033 77.0305 82.6518C75.9208 80.1002 75.3515 77.3649 75.3553 74.603Z" fill="#F2D44D"></path><path d="M97.4331 37.4844V53.3477C103.149 53.3477 108.631 55.5316 112.672 59.4188C116.714 63.3061 118.985 68.5784 118.985 74.0758H135.478C135.478 64.3711 131.47 55.064 124.335 48.2018C117.2 41.3396 107.523 37.4844 97.4331 37.4844Z" fill="#698037"></path><path d="M114.231 87.4629C112.287 89.7718 109.86 91.6617 107.108 93.01C104.357 94.3583 101.341 95.1349 98.2576 95.2895C95.174 95.444 92.0911 94.9731 89.2087 93.9073C86.3263 92.8414 83.7087 91.2044 81.5258 89.1023L69.5947 100.587C73.3443 104.197 77.8209 107.031 82.7497 108.915C87.6785 110.799 92.9554 111.694 98.2564 111.543C103.557 111.393 108.77 110.201 113.576 108.041C118.381 105.881 122.676 102.798 126.199 98.9822L114.231 87.4629Z" fill="#47A48B"></path><path d="M135.478 74.0762H118.963C118.969 78.966 117.263 83.7075 114.136 87.4985L125.849 99.0654C132.062 92.1884 135.49 83.2918 135.478 74.0762Z" fill="#443F34"></path><path d="M164.244 103.527H154.037V116.022H164.244V103.527Z" fill="#698037"></path><path d="M178.162 71.3984H168.883V116.022H178.162V71.3984Z" fill="#DB7803"></path><path d="M193.01 86.5703H183.73V116.022H193.01V86.5703Z" fill="#47A48B"></path><path d="M207.856 66.9355H196.721V116.022H207.856V66.9355Z" fill="#F2D44D"></path><path d="M221.775 55.334H211.568V116.022H221.775V55.334Z" fill="#60DEBC"></path><path d="M235.695 33.9141H226.416V116.022H235.695V33.9141Z" fill="white"></path><path d="M62.8748 166.893L61.2437 166.232C68.3331 150.603 87.0865 140.797 104.862 143.42C111.502 144.4 117.808 146.935 123.906 149.387C131.013 152.244 138.361 155.198 146.063 155.547C152.796 155.834 159.457 154.145 165.133 150.711C166.344 149.974 167.558 149.13 168.732 148.314C172.225 145.886 175.836 143.376 180.254 142.944C186.785 142.301 191.978 146.301 197.001 150.166C200.87 153.143 204.87 156.222 209.462 157.2C215.335 158.451 221.17 156.062 225.032 153.838C227.824 152.153 230.506 150.309 233.061 148.316C234.875 146.959 236.75 145.556 238.686 144.277C254.246 133.995 274.479 132.336 289.034 140.152C291.451 141.45 293.826 143.028 296.123 144.554C302.18 148.579 307.903 152.38 314.661 151.786C320.748 151.251 325.359 147.299 330.24 143.116C334.024 139.872 337.938 136.518 342.689 134.764L343.335 136.326C338.888 137.967 335.098 141.216 331.432 144.358C326.55 148.542 321.502 152.869 314.825 153.456C307.412 154.109 301.156 149.948 295.102 145.926C292.84 144.422 290.501 142.868 288.158 141.61C274.185 134.108 254.713 135.732 239.703 145.651C237.81 146.902 235.956 148.289 234.163 149.631C231.551 151.667 228.811 153.55 225.956 155.27C221.813 157.655 215.52 160.209 209.072 158.836C204.073 157.771 199.909 154.566 195.881 151.467C190.92 147.65 186.234 144.047 180.437 144.612C176.499 144.997 173.237 147.264 169.783 149.665C168.588 150.496 167.351 151.356 166.094 152.121C160.108 155.745 153.08 157.527 145.978 157.222C137.959 156.859 130.462 153.845 123.212 150.93C117.213 148.519 111.011 146.025 104.588 145.077C87.5869 142.568 69.6547 151.947 62.8748 166.893Z" fill="#DB7803"></path><path d="M62.5817 174.032L62.1714 172.374C71.2552 170.293 79.9931 167.003 88.1326 162.6C91.2231 160.928 94.3575 159.04 97.3888 157.215C108.187 150.71 119.344 143.984 132.056 144.622C141.737 145.108 150.362 149.863 158.704 154.461C160.25 155.313 161.791 156.163 163.334 156.982C176.18 163.809 186.436 165.542 194.686 162.278C198.591 160.734 201.985 158.027 205.269 155.41C208.838 152.565 212.529 149.622 216.978 148.035C227.573 144.257 239.141 149.097 248.038 153.736C248.759 154.113 249.483 154.492 250.209 154.876C258.836 159.416 267.757 164.111 277.275 163.388C281.387 163.075 285.572 161.73 289.618 160.43C296.253 158.297 303.114 156.092 309.794 158.429C311.131 158.929 312.434 159.51 313.696 160.169C316.304 161.464 318.768 162.687 321.383 162.328C323.961 161.975 326.045 160.166 328.309 158.015L342.09 144.92L343.334 146.132L329.553 159.227C327.631 161.053 324.999 163.554 321.633 164.015C318.459 164.45 315.624 163.044 312.884 161.683C311.689 161.059 310.455 160.507 309.189 160.03C303.09 157.897 296.818 159.912 290.179 162.046C286.032 163.379 281.743 164.757 277.414 165.086C267.378 165.851 258.214 161.031 249.359 156.371C248.634 155.989 247.913 155.611 247.194 155.235C238.627 150.767 227.52 146.092 217.593 149.633C213.427 151.119 210.013 153.841 206.399 156.722C203.014 159.421 199.513 162.211 195.36 163.854C186.581 167.326 175.825 165.566 162.478 158.474C160.928 157.65 159.378 156.796 157.824 155.939C149.662 151.44 141.223 146.789 131.964 146.324C119.822 145.71 108.894 152.295 98.3283 158.659C95.2797 160.495 92.1274 162.394 89.0003 164.086C80.7173 168.566 71.8255 171.914 62.5817 174.032Z" fill="#F2D44D"></path><path d="M196.042 171.354C190.57 171.354 184.284 169.713 177.066 166.422L175.685 165.787C171.735 163.962 167.65 162.075 163.37 161.925C159.279 161.786 155.444 163.179 151.381 164.656C148.467 165.824 145.442 166.706 142.349 167.29C131.048 169.043 120.328 162.763 110.318 156.18L98.4446 148.372C95.2199 146.252 91.5647 143.849 87.4898 143.615C83.9228 143.406 80.3681 144.966 77.6724 146.344C72.4641 149.007 67.6582 152.357 63.3906 156.3L62.1714 155.048C66.5573 150.995 71.4965 147.552 76.8491 144.816C79.748 143.334 83.588 141.662 87.594 141.892C92.1535 142.153 96.1913 144.808 99.4357 146.942L111.31 154.75C121.429 161.404 131.393 167.241 142.07 165.586C145.046 165.017 147.957 164.164 150.761 163.039C154.807 161.568 158.988 160.043 163.433 160.201C168.079 160.363 172.332 162.328 176.444 164.228L177.817 164.859C189.359 170.123 198.317 171.018 205.203 167.595C210.408 165.008 213.796 160.28 217.383 155.275C220.891 150.38 224.518 145.319 229.999 142.499C237.145 138.824 246.581 139.407 258.047 144.235C259.919 145.024 261.809 145.881 263.637 146.71C270.244 149.707 277.075 152.806 284.302 153.198C293.979 153.725 302.52 149.352 307.984 145.593L308.556 145.196C310.46 143.873 312.43 142.503 314.84 142.148C318.217 141.649 321.311 143.257 324.446 145.094L342.407 155.62L341.493 157.098L323.532 146.572C320.687 144.905 317.9 143.442 315.105 143.854C313.114 144.148 311.32 145.395 309.585 146.601L309.006 147.003C303.312 150.92 294.385 155.471 284.204 154.921C276.637 154.511 269.648 151.341 262.889 148.274C261.072 147.451 259.194 146.598 257.345 145.82C246.396 141.209 237.474 140.606 230.826 144.025C225.724 146.65 222.222 151.537 218.836 156.263C215.282 161.222 211.608 166.349 206.008 169.133C202.917 170.64 199.499 171.402 196.042 171.354Z" fill="#F2D44D"></path><path d="M347.974 26.7734H254.253V117.806H347.974V26.7734Z" fill="#698037"></path><path d="M302.488 228.921L316.3 215.637L293.28 193.497L279.469 206.781L302.488 228.921Z" fill="#4A453B"></path><path d="M300.649 229.792L317.796 213.301L399.798 284.979C401.544 286.505 402.95 288.356 403.93 290.42C404.91 292.484 405.444 294.717 405.501 296.986C405.557 299.254 405.134 301.509 404.257 303.616C403.381 305.722 402.068 307.636 400.4 309.24C398.732 310.844 396.743 312.106 394.553 312.95C392.363 313.793 390.017 314.2 387.659 314.145C385.301 314.091 382.978 313.577 380.833 312.635C378.687 311.692 376.762 310.34 375.176 308.661L300.649 229.792Z" fill="#443F34"></path><path opacity="0.1" d="M177.064 120.005C174.463 124.582 172.45 129.444 171.067 134.487C170.18 137.736 169.555 141.045 169.196 144.386C168.969 146.617 168.865 148.859 168.885 151.101C168.934 159.641 170.745 168.088 174.213 175.95C177.682 183.812 182.738 190.933 189.09 196.9C191.809 199.43 194.744 201.737 197.864 203.794C199.736 205.033 201.673 206.178 203.668 207.224C219.218 215.393 237.505 217.285 254.506 212.485C271.507 207.684 285.83 196.584 294.324 181.627C295.413 179.713 296.398 177.746 297.275 175.735C298.757 172.386 299.932 168.919 300.785 165.373C302.785 157.051 303.043 148.429 301.546 140.01C300.048 131.591 296.824 123.542 292.062 116.333C290.819 114.436 289.473 112.604 288.028 110.845C281.165 102.545 272.275 96.0075 262.149 91.8134C252.023 87.6193 240.977 85.8991 229.993 86.8059C219.009 87.7127 208.428 91.2184 199.193 97.0108C189.959 102.803 182.356 110.703 177.064 120.005Z" fill="white"></path><path d="M178.474 205.863C189.699 216.659 204.001 224.012 219.571 226.991C235.141 229.969 251.28 228.441 265.947 222.598C280.614 216.755 293.149 206.86 301.969 194.164C310.789 181.469 315.496 166.544 315.496 151.275C315.496 136.007 310.789 121.081 301.969 108.386C293.149 95.6903 280.614 85.7956 265.947 79.9526C251.28 74.1096 235.141 72.5808 219.571 75.5596C204.001 78.5383 189.699 85.8908 178.474 96.6873C171.02 103.856 165.108 112.366 161.074 121.732C157.04 131.099 154.964 141.137 154.964 151.275C154.964 161.413 157.041 171.452 161.074 180.818C165.108 190.184 171.02 198.694 178.474 205.863ZM187.796 196.897C178.414 187.874 172.026 176.378 169.437 163.862C166.849 151.347 168.177 138.374 173.255 126.585C178.332 114.796 186.93 104.719 197.962 97.6296C208.993 90.5402 221.963 86.7562 235.23 86.7562C248.498 86.7562 261.468 90.5402 272.499 97.6296C283.531 104.719 292.129 114.796 297.206 126.585C302.284 138.374 303.612 151.347 301.024 163.862C298.435 176.378 292.046 187.874 282.665 196.897C270.084 208.996 253.022 215.794 235.23 215.794C217.439 215.794 200.376 208.996 187.796 196.897Z" fill="#443F34"></path><path opacity="0.1" d="M168.883 151.476C168.921 159.511 170.538 167.466 173.648 174.925L300.649 139.125C299.069 131.232 295.952 123.696 291.462 116.914L168.883 151.476Z" fill="#CDE7FE"></path><path opacity="0.1" d="M170.752 134.645C169.866 137.906 169.241 141.228 168.883 144.581L287.658 110.913C285.486 108.274 283.101 105.804 280.528 103.527L170.752 134.645Z" fill="#CDE7FE"></path><path opacity="0.1" d="M188.37 196.758C191.103 199.226 194.053 201.476 197.19 203.484L297.12 176.109C298.611 172.842 299.792 169.459 300.649 166L188.37 196.758Z" fill="#CDE7FE"></path></svg> 