<?xml version="1.0" encoding="UTF-8"?> <svg xmlns="http://www.w3.org/2000/svg" width="600" height="504" viewBox="0 0 600 504" fill="none"><path d="M486.635 217.915C490.793 215.736 498.967 212.746 505.543 216.543" stroke="#738942" stroke-width="2" stroke-linecap="round" stroke-linejoin="round"></path><path d="M0.535889 483.652L9.16678 492.428C12.6652 495.927 16.8184 498.702 21.3895 500.596C25.9605 502.489 30.8597 503.464 35.8074 503.464H563.164C573.156 503.464 582.738 499.495 589.804 492.43L598.582 483.652H0.535889Z" fill="#443F34"></path><path d="M135.967 139.404H463.084C465.718 139.404 468.326 139.923 470.76 140.931C473.193 141.939 475.405 143.417 477.267 145.279C479.13 147.142 480.607 149.353 481.615 151.787C482.623 154.22 483.142 156.829 483.142 159.463V407.23H115.908V159.463C115.908 154.143 118.022 149.041 121.783 145.279C125.545 141.518 130.647 139.404 135.967 139.404Z" fill="#443F34"></path><path d="M471.38 159.465H127.671V395.471H471.38V159.465Z" fill="white"></path><path d="M483.143 407.23H115.908L1.02034 480.348C0.618025 480.604 0.309629 480.983 0.141487 481.429C-0.0266554 481.876 -0.0454597 482.364 0.0878926 482.822C0.221245 483.28 0.499551 483.682 0.881008 483.968C1.26247 484.254 1.72648 484.409 2.20331 484.409H596.849C597.326 484.409 597.79 484.254 598.171 483.968C598.553 483.682 598.831 483.28 598.964 482.822C599.098 482.364 599.079 481.875 598.911 481.429C598.743 480.983 598.434 480.604 598.032 480.348L483.143 407.23Z" fill="#CECECE"></path><path d="M361.571 479.086H234.666L246.962 443.018H349.275L361.571 479.086Z" fill="#443F34"></path><path d="M454.401 415.285L447.872 410.496H431.391L437.104 415.285H454.401ZM329.99 415.285L328.358 410.496H310.589L311.405 415.285H329.99ZM371.524 415.285L368.26 410.496H350.777L353.226 415.285H371.524ZM308.37 410.496H290.538V415.285H309.186L308.37 410.496ZM433.698 415.285L427.984 410.496H411.217L416.115 415.285H433.698ZM392.263 415.285L388.181 410.496H370.907L374.172 415.285H392.263ZM350.768 415.285L348.32 410.496H330.668L332.301 415.285H350.768ZM267.135 430.353H288.351V424.538H268.126L267.135 430.353ZM288.351 417.472H269.331L268.499 422.351H288.351L288.351 417.472ZM309.559 417.472H290.538V422.351H310.391L309.559 417.472ZM268.3 410.496H250.531L248.898 415.285H267.484L268.3 410.496ZM288.351 410.496H270.519L269.703 415.285H288.351L288.351 410.496ZM180.604 422.351H199.899L203.225 417.472H184.762L180.604 422.351ZM310.764 424.538H290.538V430.353H311.755L310.764 424.538ZM354.345 417.472L356.839 422.351H376.343L373.016 417.472H354.345ZM397 417.472L401.158 422.351H420.212L415.224 417.472H397ZM375.664 417.472L378.991 422.351H398.284L394.127 417.472H375.664ZM442.129 422.351L436.309 417.472H418.352L423.342 422.351H442.129ZM335.128 430.353L333.145 424.538H312.982L313.974 430.353H335.128ZM351.888 417.472H333.047L334.71 422.351H354.382L351.888 417.472ZM311.777 417.472L312.61 422.351H332.4L330.737 417.472H311.777ZM474.95 430.353L467.021 424.538H448.146L455.085 430.353H474.95ZM451.678 430.353L444.74 424.538H425.579L431.526 430.353H451.678ZM476.561 415.285L469.235 410.496H451.572L458.103 415.285H476.561ZM428.396 430.353L422.45 424.538H403.023L407.978 430.353H428.396ZM405.105 430.353L400.149 424.538H380.482L384.447 430.353H405.105ZM358.474 430.353L355.5 424.538H335.456L337.439 430.353H358.474ZM381.799 430.353L377.834 424.538H357.958L360.932 430.353H381.799ZM412.986 415.285L408.088 410.496H391.055L395.135 415.285H412.986ZM124.601 432.541L116.722 439.145H138.372L145.126 432.541H124.601ZM99.1052 432.541L90.0999 439.145H113.315L121.195 432.541H99.1052ZM148.254 432.541L141.501 439.145H163.417L169.046 432.541H148.254ZM130.743 424.538H110.018L102.088 430.353H123.805L130.743 424.538ZM147.499 410.496H129.167L122.637 415.285H141.785L147.499 410.496ZM139.174 417.472H119.653L113.001 422.351H133.353L139.174 417.472ZM171.92 432.541L166.292 439.145H188.448L192.95 432.541H171.92ZM502.958 432.541H481.635L490.64 439.145H513.06L502.958 432.541ZM433.763 432.541L440.517 439.145H462.168L454.288 432.541H433.763ZM195.599 432.541L191.096 439.145H387.794L383.29 432.541H195.599ZM162.774 415.285L167.672 410.496H150.905L145.191 415.285H162.774ZM457.695 432.541L465.575 439.145H486.938L477.934 432.541H457.695ZM409.843 432.541L415.47 439.145H437.388L430.634 432.541H409.843ZM385.938 432.541L390.441 439.145H412.598L406.97 432.541H385.938ZM198.407 424.538H178.74L173.784 430.353H194.442L198.407 424.538ZM175.866 424.538H156.439L150.492 430.353H170.91L175.866 424.538ZM224.545 417.472H205.873L202.547 422.351H222.05L224.545 417.472ZM220.932 424.538H201.055L197.09 430.353H217.958L220.932 424.538ZM158.677 422.351H177.731L181.888 417.472H163.666L158.677 422.351ZM127.212 430.353H147.363L153.31 424.538H134.15L127.212 430.353ZM243.432 424.538H223.388L220.414 430.353H241.45L243.432 424.538ZM136.76 422.351H155.548L160.537 417.472H142.581L136.76 422.351ZM245.841 417.472H227.002L224.507 422.351H244.179L245.841 417.472ZM225.664 415.285L228.112 410.496H210.629L207.364 415.285H225.664ZM204.717 415.285L207.982 410.496H190.708L186.627 415.285H204.717ZM248.22 410.496H230.569L228.12 415.285H246.587L248.22 410.496ZM183.752 415.285L187.834 410.496H170.801L165.903 415.285H183.752ZM265.906 424.538H245.743L243.76 430.353H264.915L265.906 424.538ZM267.111 417.472H248.152L246.489 422.351H266.279L267.111 417.472ZM445.536 422.351H467.739L470.721 424.538L478.651 430.353H499.611L479.908 417.472H439.715L445.536 422.351Z" fill="#443F34"></path><path d="M154.25 188.361H311.896C314.556 188.361 317.107 189.418 318.988 191.299C320.869 193.18 321.925 195.731 321.925 198.39V248.388C321.925 249.705 321.666 251.009 321.162 252.226C320.658 253.443 319.919 254.548 318.988 255.48C318.056 256.411 316.951 257.15 315.734 257.654C314.517 258.158 313.213 258.417 311.896 258.417H154.25C151.59 258.417 149.039 257.36 147.158 255.479C145.277 253.599 144.22 251.047 144.22 248.387V198.39C144.22 195.731 145.277 193.18 147.158 191.299C149.039 189.418 151.59 188.361 154.25 188.361Z" fill="#E4E4E4"></path><path d="M287.157 243.188H444.801C446.118 243.187 447.422 243.447 448.639 243.951C449.855 244.455 450.961 245.194 451.892 246.125C452.824 247.056 453.562 248.162 454.066 249.379C454.57 250.595 454.83 251.9 454.83 253.217V303.215C454.83 305.875 453.773 308.427 451.892 310.308C450.011 312.189 447.46 313.245 444.8 313.245H287.156C284.496 313.245 281.945 312.189 280.064 310.308C278.183 308.427 277.127 305.876 277.127 303.216V253.218C277.127 250.558 278.183 248.006 280.065 246.125C281.946 244.244 284.497 243.187 287.157 243.188Z" fill="#E4E4E4"></path><mask id="mask0_375_117" style="mask-type:luminance" maskUnits="userSpaceOnUse" x="127" y="0" width="406" height="396"><path d="M532.203 0H127.671V395.47H532.203V0Z" fill="white"></path></mask><g mask="url(#mask0_375_117)"><path d="M351.169 270.355C357.773 331.105 365.276 524.041 365.276 612.098H349.647C340.872 590.267 282.365 311.885 276.428 270.355H351.169Z" fill="#443F34"></path><path d="M276.428 270.355C244.706 302.078 234.748 524.041 234.748 612.098H250.372C259.15 590.267 333.244 311.885 339.171 270.355H276.428Z" fill="#443F34"></path><path d="M321.51 122.424C340.347 143.096 375.43 191.699 386.992 197.343C398.373 202.901 441.357 174.817 455.854 163.382C458.62 166.763 461.725 169.852 465.122 172.599C457.687 181.199 405.854 232.813 385.821 227.696C365.79 222.579 336.58 200.56 320.542 184.909C304.505 169.259 321.51 122.424 321.51 122.424Z" fill="#46A289"></path><path d="M455.854 163.382C464.301 159.439 463.602 150.378 470.682 144.71C477.763 139.043 478.721 138.129 479.511 140.068C480.303 142.006 471.824 149.634 473.645 149.704C476.764 149.823 491.047 131.746 494.088 133.027C496.186 133.91 486.657 144.806 481.679 149.296C487.454 149.176 497.987 130.221 500.096 132.838C501.511 134.593 491.149 150.28 484.736 152.892C490.13 152.898 499.883 136.867 502.434 138.436C504.491 139.701 494.421 153.757 488.636 156.345C493.523 155.395 499.03 148.038 500.277 149.632C501.806 151.599 490.755 162.02 480.283 168.334C472.003 173.325 470.839 170.27 465.122 172.598C461.436 170.191 458.282 167.054 455.854 163.382Z" fill="#F8D8D0"></path><path d="M467.593 174.379C467.593 174.379 454.826 161.782 454.11 160.836C450.859 162.577 445.004 167.699 444.684 167.662C446.705 170.338 458.816 184.73 459.383 184.796C460.78 183.649 467.593 174.379 467.593 174.379Z" fill="#5C5746"></path></g><path d="M276.428 270.353C276.428 235.613 277.336 201.894 261.255 159.496C255.593 144.569 266.492 115.604 281.135 112.1C288.195 110.369 295.572 110.405 302.615 112.206C309.657 114.006 316.147 117.514 321.51 122.421C338.015 137.197 365.814 175.397 364.434 183.083C361.906 197.166 350.797 201.513 350.797 235.156C350.797 253.581 351.169 270.353 351.169 270.353H276.428Z" fill="#46A289"></path><path d="M320.591 121.743C314.197 114.702 315.225 100.627 318.544 96.9646C321.862 93.3017 334.448 98.1385 338.43 92.4867C343.799 84.8631 348.924 69.3125 350.007 56.0104C351.592 36.5668 347.392 22.7786 325.797 21.3959C308.657 20.2982 294.838 31.2274 291.727 48.6474C288.259 68.0857 295.677 89.2832 293.465 95.8991C291.253 102.515 285.878 104.124 285.878 104.124C285.878 104.124 288.444 121.743 320.591 121.743Z" fill="#F7D3C9"></path><path d="M282.066 62.7451C282.287 79.5739 256.348 86.3627 234.566 95.6116C210.405 105.869 175.946 128.537 165.673 169.409C161.141 188.411 187.474 204.11 206.277 202.622C224.585 201.172 224.937 211.747 238.602 217.227C288.876 225.604 243.631 172.626 243.727 137.449C243.823 102.272 275.115 117.067 292.009 102.833C303.857 92.8487 295.188 83.564 303.366 72.3214C310.505 62.5043 317.671 58.8324 329.645 58.2257C340.767 57.6638 347.907 48.5458 350.383 38.6758C350.932 36.4956 351.066 35.703 349.968 33.5795C341.143 4.34646 281.293 3.80492 282.066 62.7451Z" fill="#443F34"></path><path d="M327.062 54.7169C309.525 46.6356 307.833 71.5322 300.725 70.7834C286.83 69.3195 303.887 92.8313 292.013 102.83C275.083 117.089 243.857 102.234 243.721 137.457C243.588 172.68 284.002 219.091 238.491 217.182C250.421 221.36 259.918 221.922 269.212 210.133C292.374 180.757 243.552 146.962 273.007 130.897C299.668 116.356 309.713 109.553 307.869 88.2434C306.222 69.2074 313.791 77.8265 321.012 65.8201C324.206 60.5118 332.401 67.5218 338.485 62.8175C342.342 59.8453 345.449 56.0107 347.555 51.6211C349.662 47.2315 350.711 42.4092 350.618 37.541C347.719 47.6786 337.372 59.4676 327.062 54.7169Z" fill="#443F34"></path><path d="M540.803 199.875L431.937 228.688L447.982 289.316L556.849 260.503L540.803 199.875Z" fill="#738942"></path><path d="M431.935 228.69L494.394 244.596L540.801 199.873L431.935 228.69Z" fill="#87A050"></path><path d="M431.935 228.69L498.478 260.032L540.801 199.873L494.394 244.596L431.935 228.69Z" fill="#5D722F"></path><path d="M189.591 171.044L91.3408 116.615L61.0284 171.332L159.278 225.761L189.591 171.044Z" fill="#738942"></path><path d="M90.9937 116.256L125.096 171.192L189.63 171.047L90.9937 116.256Z" fill="#87A050"></path><path d="M90.9937 116.256L117.349 184.927L189.63 170.817L125.096 170.962L90.9937 116.256Z" fill="#5D722F"></path><path d="M371.523 82.1496C369.974 82.4208 369.374 86.3843 370.184 91.0021C370.992 95.6199 372.905 99.1422 374.454 98.8709L383.229 97.3327L380.299 80.6113L371.523 82.1496Z" fill="#443F34"></path><path d="M427.208 58.7334L383.539 66.3881C379.535 67.0899 377.985 77.3332 380.077 89.2664C382.169 101.201 387.111 110.305 391.115 109.604L434.784 101.949C438.788 101.247 440.339 91.0033 438.246 79.0701C436.154 67.1358 431.213 58.0305 427.208 58.7334Z" fill="#CECECE"></path><path d="M430.766 65.5202C428.093 65.9886 427.058 72.8229 428.455 80.7846C429.851 88.7475 433.147 94.8222 435.818 94.3542L506.097 112.049L491.81 26.1016L430.766 65.5202Z" fill="#738942"></path><path d="M486.219 71.5077C482.041 47.6669 485.135 27.2032 493.135 25.8023C501.133 24.3997 511.004 42.5887 515.182 66.4295C519.362 90.2704 516.267 110.732 508.268 112.135C500.269 113.537 490.398 95.3469 486.219 71.5077Z" fill="#CECECE"></path><path d="M484.643 58.8616C485.275 67.3443 486.747 75.7433 489.038 83.935C492.231 83.2151 495.025 81.294 496.84 78.57C498.655 75.8461 499.352 72.5282 498.787 69.3041C498.222 66.08 496.437 63.1971 493.804 61.2529C491.171 59.3088 487.89 58.4525 484.643 58.8616Z" fill="#738942"></path><path d="M389.658 84.6069C388.282 73.9607 389.882 65.277 393.556 64.6328L390.396 65.1877C386.721 65.8313 385.123 74.5151 386.5 85.1601L389.658 84.6069Z" fill="#443F34"></path><path d="M396.479 83.4118C395.105 72.7663 396.702 64.083 400.375 63.4395L397.217 63.9928C393.543 64.6364 391.944 73.3196 393.321 83.9662L396.479 83.4118Z" fill="#443F34"></path><path d="M403.301 82.2155C401.923 71.5706 403.523 62.8868 407.198 62.2422L404.036 62.796C400.362 63.4401 398.765 72.1234 400.141 82.7695L403.301 82.2155Z" fill="#443F34"></path><path d="M410.12 81.0203C408.745 70.3742 410.342 61.6909 414.017 61.0468L410.858 61.6011C407.184 62.2447 405.583 70.9297 406.96 81.5741L410.12 81.0203Z" fill="#443F34"></path><path d="M399.073 108.207C400.455 116.093 408.52 143.265 415.822 150.303C419.858 149.595 423.439 148.967 424.972 148.698C426.506 148.43 427.751 147.509 426.395 145.286C425.04 143.064 418.754 121.582 416.689 105.119C414.303 105.537 399.073 108.207 399.073 108.207Z" fill="#443F34"></path><path d="M402.213 144.094C402.213 144.094 420.114 141.034 422.114 131.977C424.378 121.726 423.378 112.817 421.883 111.949C418.324 109.886 406.825 126.777 403.412 123.8C402.965 122.172 401.949 119.696 401.51 117.978C399.22 119.271 394.299 121.15 392.047 130.311C390.95 134.779 383.039 142.201 373.213 162.938L381.59 174.467C390.788 166.132 397.859 155.718 402.213 144.094Z" fill="#F8D8D0"></path><path d="M384.299 139.526C377.333 153.407 349.316 195.507 345.57 198.706C328.199 177.836 310.589 151.663 297.371 137.379C285.218 124.247 241.237 135.294 301.603 201.097C316.314 217.134 337.258 243.579 354.177 236.169C363.344 229.557 397.704 162.325 400.968 148.719L384.299 139.526Z" fill="#5CC6A9"></path><path d="M403.901 149.8C403.901 149.8 384.53 139.37 383.361 138.502C380.133 141.673 375.006 149.721 374.616 149.787C377.916 152.24 397.133 165.01 397.824 164.893C399.075 163.06 403.901 149.8 403.901 149.8Z" fill="#5C5746"></path><path d="M57.3237 324.762H287.847C290.507 324.762 293.059 325.819 294.94 327.7C296.821 329.581 297.878 332.133 297.878 334.793V368.891C297.878 370.208 297.619 371.512 297.115 372.729C296.611 373.945 295.872 375.051 294.941 375.982C294.01 376.914 292.904 377.652 291.687 378.156C290.47 378.66 289.166 378.92 287.849 378.92H57.3242C54.6642 378.92 52.1131 377.863 50.2321 375.982C48.3512 374.101 47.2944 371.55 47.2944 368.89V334.791C47.2944 332.131 48.3511 329.58 50.2319 327.699C52.1128 325.818 54.6638 324.762 57.3237 324.762Z" fill="#738942"></path><path d="M154.868 345.506H63.6948" stroke="white" stroke-width="4" stroke-linecap="round" stroke-linejoin="round"></path><path d="M244.388 361.049H63.6948" stroke="white" stroke-width="4" stroke-linecap="round" stroke-linejoin="round"></path><path d="M183.544 345.506H164.489" stroke="white" stroke-width="4" stroke-linecap="round" stroke-linejoin="round"></path><path d="M282.834 345.506H194.075" stroke="white" stroke-width="4" stroke-linecap="round" stroke-linejoin="round"></path><path d="M526.035 63.397L591.274 51.961" stroke="#738942" stroke-width="3" stroke-linecap="round" stroke-linejoin="round"></path><path d="M519.33 46.8257L577.639 15.4084" stroke="#738942" stroke-width="3" stroke-linecap="round" stroke-linejoin="round"></path><path d="M525.366 81.2619L590.883 90.977" stroke="#738942" stroke-width="3" stroke-linecap="round" stroke-linejoin="round"></path></svg> 