<?xml version="1.0" encoding="UTF-8"?>
<!DOCTYPE svg PUBLIC "-//W3C//DTD SVG 1.1//EN" "http://www.w3.org/Graphics/SVG/1.1/DTD/svg11.dtd">
<!-- Creator: CorelDRAW 2019 (64-Bit) -->
<svg xmlns="http://www.w3.org/2000/svg" xml:space="preserve" width="5.83941in" height="1.90369in" version="1.1" style="shape-rendering:geometricPrecision; text-rendering:geometricPrecision; image-rendering:optimizeQuality; fill-rule:evenodd; clip-rule:evenodd"
viewBox="0 0 6026.86 1964.8"
 xmlns:xlink="http://www.w3.org/1999/xlink"
 xmlns:xodm="http://www.corel.com/coreldraw/odm/2003">
 <defs>
  <style type="text/css">
   <![CDATA[
    .fil1 {fill:#FD7E14}
    .fil0 {fill:#FFFFFF;fill-rule:nonzero} 
   ]]>
  </style>
 </defs>
 <g id="Layer_x0020_1">
  <metadata id="CorelCorpID_0Corel-Layer"/>
  <path class="fil0" d="M6011.32 718.02l-7.28 93.13c-16.65,-9.13 -33.92,-15.79 -52.06,-20.11 -18.01,-4.19 -38.24,-6.29 -60.32,-6.29 -47.74,0 -84.62,15.54 -110.65,46.63 -26.03,31.08 -39.11,75.12 -39.11,132.23 0,58.1 11.11,102.5 33.43,133.22 22.33,30.72 54.52,46.14 96.71,46.14 7.03,0 14.06,-0.62 21.21,-1.97 7.03,-1.36 14.31,-3.45 21.84,-6.41l0 -121.13 -65.87 0 0 -86.59 177.63 0 0 274.58c-20.72,8.88 -44.65,15.66 -71.79,20.35 -27.14,4.69 -56.25,7.03 -87.33,7.03 -79.31,0 -140.74,-22.57 -184.53,-67.59 -43.79,-45.03 -65.62,-108.31 -65.62,-189.96 0,-86.23 23.19,-153.33 69.45,-201.19 46.25,-47.98 111.26,-71.91 194.89,-71.91 22.82,0 45.15,1.72 66.61,5.05 21.59,3.33 42.56,8.26 62.79,14.8z"/>
  <polygon class="fil0" points="5149.08,707.04 5284.4,707.04 5439.21,1081.54 5439.21,707.04 5539.86,707.04 5539.86,1220.68 5404.55,1220.68 5249,845.45 5249,1220.68 5149.08,1220.68 "/>
  <polygon class="fil0" points="4929.4,707.04 5047.07,707.04 5047.07,1220.68 4929.4,1220.68 "/>
  <polygon class="fil0" points="4523.07,707.04 4865,707.04 4865,798.82 4753.25,798.82 4753.25,1220.68 4634.83,1220.68 4634.83,798.82 4523.07,798.82 "/>
  <polygon class="fil0" points="4176.7,707.04 4469.04,707.04 4469.04,792.9 4294.37,792.9 4294.37,915.75 4459.42,915.75 4459.42,1001.61 4294.37,1001.61 4294.37,1134.09 4477.19,1134.09 4477.19,1220.68 4176.7,1220.68 "/>
  <polygon class="fil0" points="3749.53,707.04 3867.21,707.04 3867.21,917.73 3995.86,707.04 4126.25,707.04 3970.82,945.98 4139.57,1220.68 4000.55,1220.68 3867.21,984.59 3867.21,1220.68 3749.53,1220.68 "/>
  <path class="fil0" d="M3330.01 707.04l121.26 0c6.29,0 12.58,-0.12 19.12,-0.37 6.54,-0.25 9.99,-0.37 10.49,-0.37 65.38,0 112.86,10.98 142.72,33.06 29.73,22.08 44.65,57.23 44.65,105.47 0,31.58 -8.14,57.61 -24.55,78.08 -16.4,20.48 -40.34,34.54 -71.67,42.31 15.42,3.82 27.63,11.11 36.64,21.71 9.13,10.61 18.38,30.59 27.75,60.07l56.37 173.68 -121.5 0 -40.95 -145.56c-7.16,-26.52 -15.17,-43.91 -23.93,-52.17 -8.88,-8.27 -21.84,-12.46 -38.86,-12.46l-22.08 0 0 210.2 -115.46 0 0 -513.64zm115.46 85.86l0 131.74 24.92 0c29.36,0 50.45,-5.06 63.28,-15.17 12.7,-10.11 19.12,-26.52 19.12,-49.09 0,-24.79 -5.8,-42.19 -17.52,-52.3 -11.72,-10.11 -32.69,-15.17 -63.03,-15.17l-26.77 0z"/>
  <path class="fil0" d="M2989.31 707.04l136.31 0 159.24 513.64 -122.12 0 -29.61 -114.72 -165.04 0 -31.08 114.72 -114.72 0 167.02 -513.64zm66.12 101.15l-61.43 208.96 116.07 0 -54.65 -208.96z"/>
  <polygon class="fil0" points="2261.4,707.04 2427.07,707.04 2518.97,1051.2 2612.22,707.04 2779.49,707.04 2779.49,1220.68 2675.13,1220.68 2675.13,793.39 2555.1,1220.68 2482.08,1220.68 2360.58,794.13 2360.58,1220.68 2261.4,1220.68 "/>
  <path class="fil0" d="M4067.17 23.62l131 0c93.5,0 162.45,20.85 206.99,62.54 44.53,41.69 66.86,106.33 66.86,194.03 0,83.63 -23.32,147.41 -70.07,191.32 -46.75,43.79 -114.6,65.75 -203.78,65.75l-131 0 0 -513.64zm117.68 85.85l0 341.19 15.54 0c48.85,0 85.61,-14.19 110.28,-42.68 24.67,-28.37 37.01,-70.93 37.01,-127.55 0,-58.1 -12.09,-101.15 -36.27,-129.02 -24.18,-28 -61.18,-41.94 -111.02,-41.94l-15.54 0z"/>
  <polygon class="fil0" points="3574.99,23.62 3710.31,23.62 3865.11,398.11 3865.11,23.62 3965.77,23.62 3965.77,537.25 3830.45,537.25 3674.91,162.02 3674.91,537.25 3574.99,537.25 "/>
  <path class="fil0" d="M3234.29 23.62l136.31 0 159.25 513.64 -122.12 0 -29.6 -114.72 -165.05 0 -31.08 114.72 -114.72 0 167.02 -513.64zm66.12 101.15l-61.43 208.96 116.07 0 -54.64 -208.96z"/>
  <path class="fil0" d="M2675.13 23.62l121.26 0c6.29,0 12.58,-0.13 19.12,-0.37 6.54,-0.25 9.99,-0.37 10.49,-0.37 65.38,0 112.86,10.98 142.72,33.06 29.73,22.08 44.65,57.24 44.65,105.47 0,31.58 -8.14,57.6 -24.55,78.08 -16.41,20.48 -40.34,34.53 -71.67,42.31 15.42,3.82 27.64,11.1 36.64,21.71 9.13,10.61 18.38,30.59 27.75,60.07l56.37 173.68 -121.5 0 -40.95 -145.55c-7.16,-26.52 -15.17,-43.91 -23.93,-52.18 -8.88,-8.26 -21.84,-12.46 -38.86,-12.46l-22.08 0 0 210.19 -115.46 0 0 -513.64zm115.46 85.85l0 131.74 24.92 0c29.36,0 50.45,-5.06 63.28,-15.17 12.7,-10.12 19.12,-26.52 19.12,-49.1 0,-24.79 -5.8,-42.19 -17.52,-52.3 -11.72,-10.11 -32.69,-15.17 -63.03,-15.17l-26.77 0z"/>
  <path class="fil0" d="M2261.41 23.62l157.77 0c57.12,0 99.54,10.61 127.18,31.82 27.63,21.21 41.45,54.03 41.45,98.31 0,31.58 -8.02,57.36 -24.05,77.34 -16.04,20.11 -39.23,33.06 -69.45,39.1 35.28,6.29 61.43,19.86 78.7,40.83 17.27,20.97 25.9,49.71 25.9,86.34 0,47.74 -15.05,83.02 -45.02,105.71 -29.98,22.82 -76.72,34.17 -140.13,34.17l-152.34 0 0 -513.64zm112.49 85.85l0 125.08 26.4 0c26.15,0 45.02,-4.81 56.74,-14.43 11.72,-9.63 17.51,-25.29 17.51,-47 0,-22.45 -5.92,-38.61 -17.76,-48.6 -11.84,-9.99 -31.33,-15.05 -58.59,-15.05l-24.3 0zm0 204.27l0 136.92 28.62 0c28.87,0 49.83,-5.31 62.91,-15.91 12.95,-10.61 19.49,-27.76 19.49,-51.44 0,-24.67 -6.41,-42.43 -19.37,-53.29 -12.83,-10.85 -33.92,-16.28 -63.03,-16.28l-28.62 0z"/>
  <path class="fil0" d="M3189.39 1420.14l157.77 0c57.11,0 99.54,10.61 127.18,31.82 27.63,21.21 41.45,54.03 41.45,98.31 0,31.58 -8.02,57.36 -24.06,77.34 -16.03,20.11 -39.23,33.06 -69.45,39.1 35.28,6.29 61.43,19.86 78.7,40.83 17.27,20.97 25.9,49.71 25.9,86.34 0,47.74 -15.05,83.02 -45.03,105.71 -29.97,22.82 -76.72,34.17 -140.13,34.17l-152.34 0 0 -513.64zm112.5 85.85l0 125.08 26.4 0c26.15,0 45.02,-4.81 56.74,-14.43 11.72,-9.63 17.52,-25.29 17.52,-47 0,-22.45 -5.92,-38.61 -17.77,-48.6 -11.84,-9.99 -31.33,-15.05 -58.59,-15.05l-24.3 0zm0 204.27l0 136.92 28.62 0c28.86,0 49.83,-5.31 62.91,-15.91 12.95,-10.61 19.49,-27.76 19.49,-51.44 0,-24.67 -6.42,-42.43 -19.37,-53.29 -12.83,-10.85 -33.92,-16.28 -63.03,-16.28l-28.62 0z"/>
  <path class="fil0" d="M2721.02 1420.14l118.42 0 0 328.61c0,40.21 5.18,67.97 15.54,83.38 10.36,15.42 28,23.19 53.17,23.19 25.53,0 43.54,-7.77 54.03,-23.31 10.48,-15.54 15.66,-43.3 15.66,-83.26l0 -328.61 112.49 0 0 315.16c0,70.31 -15.17,122.36 -45.39,156.04 -30.22,33.68 -76.72,50.58 -139.63,50.58 -62.66,0 -109.05,-16.78 -139.14,-50.33 -30.1,-33.67 -45.15,-85.73 -45.15,-156.29l0 -315.16z"/>
  <polygon class="fil0" points="2261.41,1420.14 2379.09,1420.14 2379.09,1622.19 2504.17,1622.19 2504.17,1420.14 2621.84,1420.14 2621.84,1933.78 2504.17,1933.78 2504.17,1715.45 2379.09,1715.45 2379.09,1933.78 2261.41,1933.78 "/>
  <path class="fil1" d="M1009.87 0l504.93 245.6 504.94 245.6 0 491.2 0 491.2 -504.94 245.6 -504.93 245.6 -504.94 -245.6 -504.94 -245.6 0 -491.2 0 -491.2 504.94 -245.6 504.94 -245.6zm-340.61 365.36c-6.58,242.02 -0.92,559.78 -0.94,811.95l0.33 399.05 138.19 80.81c10.85,-72.6 -1.85,-1186.34 2.4,-1202.94 9.85,-17.93 31.41,-25.92 46.5,-34.59 29.25,-16.82 27.04,-10.81 56.2,6.68 121.19,72.69 91.29,75.54 213.26,-0.92 24.9,-15.61 29.64,-19.81 56.03,-4.65 59.72,34.3 45.07,8.74 45.01,188.43l-0.28 1046.73 139.77 -78.04c8.38,-120 1.28,-676.23 1.21,-859.66l-0.75 -355.62c-46.79,-19.38 -125.35,-70.41 -171.87,-98 -47.66,-28.27 -43.93,-17.46 -89.23,8.87 -101.11,58.79 -72.22,61.35 -173.04,0.8 -46.76,-28.09 -42.99,-38.46 -93.06,-8.62 -55.5,33.08 -119.97,64.27 -169.76,99.72zm-136.95 628.1c-0.8,-102.04 -1.7,-194.77 -1.72,-258.03l-0.12 -159.94c-1.45,-131.34 -54.37,-92.31 -109.41,-67.84l-218.29 125.98c-20.94,12.16 -33.3,19.87 -54.35,31.79 -28.7,16.25 -37.18,9.91 -37.18,47.05l0.04 280.99 -0.04 280.98c0,37.14 8.48,30.8 37.18,47.05 21.05,11.91 33.41,19.63 54.35,31.79l218.29 125.98c55.04,24.47 107.96,63.5 109.41,-67.84l0.12 -159.93c0.02,-63.27 0.92,-155.99 1.72,-258.03zm-143.93 70.4l-136.16 0 -0.17 109.6 135.69 76.16 0.65 -185.76zm-135.94 -140.8l136.42 0 0.8 -229.21 -136.98 75.19 -0.25 154.02zm1252.37 133.74l-0.13 437.1 140.34 -77.65c6.54,-111.54 0.95,-432.39 0.95,-562.08 40.33,15.86 100.12,55.57 137.27,77.69l0.45 401.23c13.75,-5.09 136.62,-68.01 140.67,-86.9l-0.19 -533.7c-0.03,-27.64 -3.21,-27.23 -21.1,-37.62l-118.99 -66.05 -0.54 154.6 -136.1 -74.56 -1.62 -154.27c-6.67,-17.03 -119.24,-81.18 -140.97,-86.81l-0.05 609.04z"/>
 </g>
</svg>